<svg width="136" height="76" viewBox="0 0 136 76" fill="none" xmlns="http://www.w3.org/2000/svg">
<path d="M134.667 38.0189C134.667 58.2061 104.819 74.571 68 74.571M134.667 38.0189C134.667 17.8317 104.819 1.4668 68 1.4668M134.667 38.0189H1.33331M68 74.571C31.181 74.571 1.33331 58.2061 1.33331 38.0189M68 74.571V1.4668M68 74.571C85.8835 74.571 97.5921 58.2061 97.5921 38.0189C97.5921 17.8317 85.8835 1.4668 68 1.4668M68 74.571C50.1165 74.571 38.4079 58.2061 38.4079 38.0189C38.4079 17.8317 50.1165 1.4668 68 1.4668M68 74.571C85.8835 74.571 119.391 58.2061 119.391 38.0189C119.391 17.8317 85.8835 1.4668 68 1.4668M68 74.571C50.1165 74.571 17.6999 58.2061 17.6999 38.0189C17.6999 17.8317 50.1165 1.4668 68 1.4668M68 74.571C74.6889 74.571 80.1113 58.2061 80.1113 38.0189C80.1113 17.8317 74.6889 1.4668 68 1.4668M68 74.571C61.3111 74.571 55.8887 58.2061 55.8887 38.0189C55.8887 17.8317 61.3111 1.4668 68 1.4668M1.33331 38.0189C1.33331 17.8317 31.181 1.4668 68 1.4668" stroke="#141414" stroke-width="2" stroke-linecap="round" stroke-linejoin="round"/>
</svg>
