<svg width="8" height="13" viewBox="0 0 8 13" fill="none" xmlns="http://www.w3.org/2000/svg">
<mask id="path-1-inside-1_795_2903" fill="white">
<path fill-rule="evenodd" clip-rule="evenodd" d="M4.75 1.25C4.75 0.835786 4.41421 0.5 4 0.5C3.58579 0.5 3.25 0.835786 3.25 1.25V1.5C3.25 2.05228 2.80228 2.5 2.25 2.5H1C0.447715 2.5 0 2.94772 0 3.5V9.5C0 10.0523 0.447715 10.5 1 10.5H2.25C2.80228 10.5 3.25 10.9477 3.25 11.5V11.75C3.25 12.1642 3.58579 12.5 4 12.5C4.41421 12.5 4.75 12.1642 4.75 11.75V11.5C4.75 10.9477 5.19772 10.5 5.75 10.5H7C7.55228 10.5 8 10.0523 8 9.5V3.5C8 2.94772 7.55228 2.5 7 2.5H5.75C5.19772 2.5 4.75 2.05228 4.75 1.5V1.25Z"/>
</mask>
<path d="M4.25 1.5V1.25H2.25V1.5H4.25ZM1 3.5H2.25V1.5H1V3.5ZM1 9.5V3.5H-1V9.5H1ZM2.25 9.5H1V11.5H2.25V9.5ZM4.25 11.75V11.5H2.25V11.75H4.25ZM3.75 11.5V11.75H5.75V11.5H3.75ZM7 9.5H5.75V11.5H7V9.5ZM7 3.5V9.5H9V3.5H7ZM5.75 3.5H7V1.5H5.75V3.5ZM3.75 1.25V1.5H5.75V1.25H3.75ZM5.75 1.5H3.75C3.75 2.60457 4.64543 3.5 5.75 3.5V1.5ZM9 3.5C9 2.39543 8.10457 1.5 7 1.5V3.5H9ZM7 11.5C8.10457 11.5 9 10.6046 9 9.5H7V11.5ZM5.75 11.5V9.5C4.64543 9.5 3.75 10.3954 3.75 11.5H5.75ZM4 13.5C4.9665 13.5 5.75 12.7165 5.75 11.75H3.75C3.75 11.6119 3.86193 11.5 4 11.5V13.5ZM2.25 11.75C2.25 12.7165 3.0335 13.5 4 13.5V11.5C4.13807 11.5 4.25 11.6119 4.25 11.75H2.25ZM2.25 11.5H4.25C4.25 10.3954 3.35457 9.5 2.25 9.5V11.5ZM-1 9.5C-1 10.6046 -0.10457 11.5 1 11.5V9.5H1H-1ZM1 1.5C-0.104569 1.5 -1 2.39543 -1 3.5H1V1.5ZM2.25 1.5V3.5C3.35457 3.5 4.25 2.60457 4.25 1.5H2.25ZM4 1.5C3.86193 1.5 3.75 1.38807 3.75 1.25H5.75C5.75 0.283502 4.9665 -0.5 4 -0.5V1.5ZM4 -0.5C3.0335 -0.5 2.25 0.283502 2.25 1.25H4.25C4.25 1.38807 4.13807 1.5 4 1.5V-0.5Z" fill="#898988" mask="url(#path-1-inside-1_795_2903)"/>
</svg>