<svg width="264" height="626" viewBox="0 0 264 626" fill="none" xmlns="http://www.w3.org/2000/svg">
<rect x="17" width="2" height="12" fill="#EEEEEC"/>
<path fill-rule="evenodd" clip-rule="evenodd" d="M19 12H17V14H8V41H17V43H19V41H28V14H19V12Z" fill="#EEEEED"/>
<path d="M53.904 38V17.98H61.604C62.836 17.98 63.9373 18.176 64.908 18.568C65.8787 18.9413 66.644 19.548 67.204 20.388C67.764 21.228 68.044 22.348 68.044 23.748C68.044 25.148 67.764 26.2773 67.204 27.136C66.644 27.976 65.8787 28.592 64.908 28.984C63.9373 29.3573 62.836 29.544 61.604 29.544H55.948V38H53.904ZM55.948 27.752H61.8C63.144 27.752 64.1613 27.4253 64.852 26.772C65.5613 26.1187 65.916 25.1107 65.916 23.748C65.916 22.3853 65.5613 21.3867 64.852 20.752C64.1613 20.0987 63.144 19.772 61.8 19.772H55.948V27.752ZM79.7364 28.368C79.7364 27.752 79.6337 27.192 79.4284 26.688C79.2231 26.1653 78.8777 25.7547 78.3924 25.456C77.9071 25.1387 77.2537 24.98 76.4324 24.98C75.5364 24.98 74.7524 25.1667 74.0804 25.54C73.4084 25.9133 72.8857 26.408 72.5124 27.024C72.1391 27.6213 71.9524 28.2747 71.9524 28.984V38H70.1324V17.98H71.9524V25.764H72.0084C72.4004 25.1667 72.9884 24.6253 73.7724 24.14C74.5751 23.636 75.6111 23.384 76.8804 23.384C77.7391 23.384 78.5137 23.552 79.2044 23.888C79.9137 24.2053 80.4831 24.7 80.9124 25.372C81.3417 26.044 81.5564 26.912 81.5564 27.976V38H79.7364V28.368ZM88.2933 38.364C86.8746 38.364 85.7359 38 84.8773 37.272C84.0373 36.544 83.6173 35.5827 83.6173 34.388C83.6173 33.3613 83.8506 32.5493 84.3173 31.952C84.7839 31.336 85.4559 30.86 86.3333 30.524C87.2106 30.188 88.2653 29.908 89.4973 29.684C90.2813 29.5347 90.9626 29.3947 91.5413 29.264C92.1199 29.1333 92.5679 28.928 92.8853 28.648C93.2026 28.368 93.3613 27.948 93.3613 27.388C93.3613 26.66 93.1093 26.072 92.6053 25.624C92.1013 25.176 91.2706 24.952 90.1133 24.952C88.7506 24.952 87.7799 25.204 87.2013 25.708C86.6226 26.212 86.2959 26.9867 86.2213 28.032H84.3173C84.3733 27.192 84.5973 26.4173 84.9893 25.708C85.3813 24.9987 85.9973 24.4293 86.8373 24C87.6959 23.5707 88.8159 23.356 90.1973 23.356C91.0746 23.356 91.8866 23.496 92.6333 23.776C93.3986 24.056 94.0053 24.532 94.4533 25.204C94.9199 25.8573 95.1533 26.7533 95.1533 27.892V35.032C95.1533 35.6107 95.2093 36.04 95.3213 36.32C95.4333 36.5813 95.6386 36.712 95.9373 36.712C96.0866 36.712 96.2173 36.7027 96.3293 36.684V38C96.1799 38.0187 96.0213 38.0373 95.8533 38.056C95.7039 38.0933 95.5453 38.112 95.3773 38.112C94.7986 38.112 94.3319 37.9627 93.9773 37.664C93.6226 37.3467 93.4266 36.74 93.3893 35.844H93.3333C92.8293 36.6467 92.1573 37.272 91.3173 37.72C90.4773 38.1493 89.4693 38.364 88.2933 38.364ZM88.5173 36.768C89.9919 36.768 91.1679 36.404 92.0453 35.676C92.9226 34.948 93.3613 33.94 93.3613 32.652V29.992C93.1559 30.2907 92.7079 30.5333 92.0173 30.72C91.3453 30.888 90.5799 31.0467 89.7213 31.196C88.3399 31.4387 87.2946 31.7747 86.5853 32.204C85.8759 32.6333 85.5213 33.3053 85.5213 34.22C85.5213 35.0413 85.7639 35.676 86.2493 36.124C86.7346 36.5533 87.4906 36.768 88.5173 36.768ZM103.695 29.684C104.591 29.8893 105.44 30.1413 106.243 30.44C107.064 30.7387 107.727 31.168 108.231 31.728C108.753 32.288 109.015 33.0627 109.015 34.052C109.015 35.3587 108.52 36.404 107.531 37.188C106.56 37.972 105.188 38.364 103.415 38.364C102.089 38.364 100.96 38.14 100.027 37.692C99.1119 37.244 98.4119 36.6467 97.9266 35.9C97.4412 35.1347 97.1799 34.276 97.1426 33.324H99.0746C99.1306 34.2947 99.4946 35.116 100.167 35.788C100.857 36.4413 101.949 36.768 103.443 36.768C104.824 36.768 105.776 36.4973 106.299 35.956C106.84 35.4147 107.111 34.7987 107.111 34.108C107.111 33.3987 106.905 32.876 106.495 32.54C106.084 32.204 105.561 31.952 104.927 31.784C104.311 31.616 103.667 31.4573 102.995 31.308C102.117 31.084 101.268 30.8413 100.447 30.58C99.6439 30.3 98.9812 29.8987 98.4586 29.376C97.9546 28.8533 97.7026 28.1347 97.7026 27.22C97.7026 26.0627 98.1412 25.1387 99.0186 24.448C99.9146 23.7387 101.165 23.384 102.771 23.384C104.003 23.384 105.02 23.58 105.823 23.972C106.644 24.364 107.269 24.896 107.699 25.568C108.147 26.2213 108.408 26.94 108.483 27.724H106.551C106.476 27.2947 106.317 26.8747 106.075 26.464C105.832 26.0347 105.449 25.68 104.927 25.4C104.423 25.12 103.704 24.98 102.771 24.98C101.744 24.98 100.96 25.1667 100.419 25.54C99.8772 25.9133 99.6066 26.436 99.6066 27.108C99.6066 27.7053 99.7932 28.1533 100.167 28.452C100.559 28.7507 101.063 28.984 101.679 29.152C102.295 29.32 102.967 29.4973 103.695 29.684ZM117.069 38.392C115.613 38.392 114.381 38.0653 113.373 37.412C112.365 36.7587 111.59 35.8627 111.049 34.724C110.526 33.5853 110.265 32.2973 110.265 30.86C110.265 29.3293 110.545 28.004 111.105 26.884C111.665 25.764 112.458 24.896 113.485 24.28C114.512 23.664 115.706 23.356 117.069 23.356C118.45 23.356 119.617 23.6547 120.569 24.252C121.521 24.8307 122.249 25.6427 122.753 26.688C123.257 27.7147 123.509 28.8907 123.509 30.216C123.509 30.4027 123.509 30.5893 123.509 30.776C123.509 30.9627 123.5 31.112 123.481 31.224H112.169C112.188 32.1947 112.365 33.1093 112.701 33.968C113.056 34.808 113.597 35.4987 114.325 36.04C115.053 36.5627 115.977 36.824 117.097 36.824C118.086 36.824 118.88 36.6373 119.477 36.264C120.093 35.8907 120.55 35.4613 120.849 34.976C121.166 34.472 121.372 34.024 121.465 33.632H123.313C123.089 34.4907 122.706 35.284 122.165 36.012C121.642 36.74 120.961 37.3187 120.121 37.748C119.281 38.1773 118.264 38.392 117.069 38.392ZM116.985 24.924C116.07 24.924 115.258 25.1293 114.549 25.54C113.84 25.9507 113.28 26.5107 112.869 27.22C112.458 27.9293 112.225 28.732 112.169 29.628H121.577C121.577 28.7693 121.4 27.9853 121.045 27.276C120.69 26.5667 120.168 25.9973 119.477 25.568C118.805 25.1387 117.974 24.924 116.985 24.924ZM141.384 38.364C139.461 38.364 137.781 37.916 136.344 37.02C134.907 36.124 133.787 34.9013 132.984 33.352C132.181 31.784 131.78 29.992 131.78 27.976C131.78 25.96 132.181 24.1773 132.984 22.628C133.787 21.06 134.907 19.8373 136.344 18.96C137.781 18.064 139.461 17.616 141.384 17.616C143.307 17.616 144.987 18.064 146.424 18.96C147.88 19.8373 149.009 21.06 149.812 22.628C150.615 24.1773 151.016 25.96 151.016 27.976C151.016 29.992 150.615 31.784 149.812 33.352C149.009 34.9013 147.88 36.124 146.424 37.02C144.987 37.916 143.307 38.364 141.384 38.364ZM141.384 36.572C143.045 36.572 144.427 36.1893 145.528 35.424C146.648 34.64 147.488 33.5947 148.048 32.288C148.608 30.9813 148.888 29.544 148.888 27.976C148.888 26.3893 148.608 24.952 148.048 23.664C147.488 22.376 146.648 21.3493 145.528 20.584C144.427 19.8 143.045 19.408 141.384 19.408C139.741 19.408 138.36 19.8 137.24 20.584C136.139 21.3493 135.308 22.376 134.748 23.664C134.188 24.952 133.908 26.3893 133.908 27.976C133.908 29.544 134.188 30.9813 134.748 32.288C135.308 33.5947 136.139 34.64 137.24 35.424C138.36 36.1893 139.741 36.572 141.384 36.572ZM153.628 38V23.72H155.448V25.764H155.504C155.896 25.1667 156.484 24.6253 157.268 24.14C158.071 23.636 159.107 23.384 160.376 23.384C161.235 23.384 162.01 23.552 162.7 23.888C163.41 24.2053 163.979 24.7 164.408 25.372C164.838 26.044 165.052 26.912 165.052 27.976V38H163.232V28.368C163.232 27.752 163.13 27.192 162.924 26.688C162.719 26.1653 162.374 25.7547 161.888 25.456C161.403 25.1387 160.75 24.98 159.928 24.98C159.032 24.98 158.248 25.1667 157.576 25.54C156.904 25.9133 156.382 26.408 156.008 27.024C155.635 27.6213 155.448 28.2747 155.448 28.984V38H153.628ZM173.945 38.392C172.489 38.392 171.257 38.0653 170.249 37.412C169.241 36.7587 168.466 35.8627 167.925 34.724C167.402 33.5853 167.141 32.2973 167.141 30.86C167.141 29.3293 167.421 28.004 167.981 26.884C168.541 25.764 169.334 24.896 170.361 24.28C171.388 23.664 172.582 23.356 173.945 23.356C175.326 23.356 176.493 23.6547 177.445 24.252C178.397 24.8307 179.125 25.6427 179.629 26.688C180.133 27.7147 180.385 28.8907 180.385 30.216C180.385 30.4027 180.385 30.5893 180.385 30.776C180.385 30.9627 180.376 31.112 180.357 31.224H169.045C169.064 32.1947 169.241 33.1093 169.577 33.968C169.932 34.808 170.473 35.4987 171.201 36.04C171.929 36.5627 172.853 36.824 173.973 36.824C174.962 36.824 175.756 36.6373 176.353 36.264C176.969 35.8907 177.426 35.4613 177.725 34.976C178.042 34.472 178.248 34.024 178.341 33.632H180.189C179.965 34.4907 179.582 35.284 179.041 36.012C178.518 36.74 177.837 37.3187 176.997 37.748C176.157 38.1773 175.14 38.392 173.945 38.392ZM173.861 24.924C172.946 24.924 172.134 25.1293 171.425 25.54C170.716 25.9507 170.156 26.5107 169.745 27.22C169.334 27.9293 169.101 28.732 169.045 29.628H178.453C178.453 28.7693 178.276 27.9853 177.921 27.276C177.566 26.5667 177.044 25.9973 176.353 25.568C175.681 25.1387 174.85 24.924 173.861 24.924ZM181.2 35.648H183.552V38H181.2V35.648Z" fill="#EEEEEC"/>
<rect x="17" y="43" width="2" height="40.375" fill="#EEEEEC"/>
<path fill-rule="evenodd" clip-rule="evenodd" d="M19 83.375H17V85.375H8V112.375H17V114.375H19V112.375H28V85.375H19V83.375Z" fill="#EEEEED"/>
<path d="M53.904 109.375V89.355H61.604C62.836 89.355 63.9373 89.551 64.908 89.943C65.8787 90.3163 66.644 90.923 67.204 91.763C67.764 92.603 68.044 93.723 68.044 95.123C68.044 96.523 67.764 97.6523 67.204 98.511C66.644 99.351 65.8787 99.967 64.908 100.359C63.9373 100.732 62.836 100.919 61.604 100.919H55.948V109.375H53.904ZM55.948 99.127H61.8C63.144 99.127 64.1613 98.8003 64.852 98.147C65.5613 97.4937 65.916 96.4857 65.916 95.123C65.916 93.7603 65.5613 92.7617 64.852 92.127C64.1613 91.4737 63.144 91.147 61.8 91.147H55.948V99.127ZM79.7364 99.743C79.7364 99.127 79.6337 98.567 79.4284 98.063C79.2231 97.5403 78.8777 97.1297 78.3924 96.831C77.9071 96.5137 77.2537 96.355 76.4324 96.355C75.5364 96.355 74.7524 96.5417 74.0804 96.915C73.4084 97.2883 72.8857 97.783 72.5124 98.399C72.1391 98.9963 71.9524 99.6497 71.9524 100.359V109.375H70.1324V89.355H71.9524V97.139H72.0084C72.4004 96.5417 72.9884 96.0003 73.7724 95.515C74.5751 95.011 75.6111 94.759 76.8804 94.759C77.7391 94.759 78.5137 94.927 79.2044 95.263C79.9137 95.5803 80.4831 96.075 80.9124 96.747C81.3417 97.419 81.5564 98.287 81.5564 99.351V109.375H79.7364V99.743ZM88.2933 109.739C86.8746 109.739 85.7359 109.375 84.8773 108.647C84.0373 107.919 83.6173 106.958 83.6173 105.763C83.6173 104.736 83.8506 103.924 84.3173 103.327C84.7839 102.711 85.4559 102.235 86.3333 101.899C87.2106 101.563 88.2653 101.283 89.4973 101.059C90.2813 100.91 90.9626 100.77 91.5413 100.639C92.1199 100.508 92.5679 100.303 92.8853 100.023C93.2026 99.743 93.3613 99.323 93.3613 98.763C93.3613 98.035 93.1093 97.447 92.6053 96.999C92.1013 96.551 91.2706 96.327 90.1133 96.327C88.7506 96.327 87.7799 96.579 87.2013 97.083C86.6226 97.587 86.2959 98.3617 86.2213 99.407H84.3173C84.3733 98.567 84.5973 97.7923 84.9893 97.083C85.3813 96.3737 85.9973 95.8043 86.8373 95.375C87.6959 94.9457 88.8159 94.731 90.1973 94.731C91.0746 94.731 91.8866 94.871 92.6333 95.151C93.3986 95.431 94.0053 95.907 94.4533 96.579C94.9199 97.2323 95.1533 98.1283 95.1533 99.267V106.407C95.1533 106.986 95.2093 107.415 95.3213 107.695C95.4333 107.956 95.6386 108.087 95.9373 108.087C96.0866 108.087 96.2173 108.078 96.3293 108.059V109.375C96.1799 109.394 96.0213 109.412 95.8533 109.431C95.7039 109.468 95.5453 109.487 95.3773 109.487C94.7986 109.487 94.3319 109.338 93.9773 109.039C93.6226 108.722 93.4266 108.115 93.3893 107.219H93.3333C92.8293 108.022 92.1573 108.647 91.3173 109.095C90.4773 109.524 89.4693 109.739 88.2933 109.739ZM88.5173 108.143C89.9919 108.143 91.1679 107.779 92.0453 107.051C92.9226 106.323 93.3613 105.315 93.3613 104.027V101.367C93.1559 101.666 92.7079 101.908 92.0173 102.095C91.3453 102.263 90.5799 102.422 89.7213 102.571C88.3399 102.814 87.2946 103.15 86.5853 103.579C85.8759 104.008 85.5213 104.68 85.5213 105.595C85.5213 106.416 85.7639 107.051 86.2493 107.499C86.7346 107.928 87.4906 108.143 88.5173 108.143ZM103.695 101.059C104.591 101.264 105.44 101.516 106.243 101.815C107.064 102.114 107.727 102.543 108.231 103.103C108.753 103.663 109.015 104.438 109.015 105.427C109.015 106.734 108.52 107.779 107.531 108.563C106.56 109.347 105.188 109.739 103.415 109.739C102.089 109.739 100.96 109.515 100.027 109.067C99.1119 108.619 98.4119 108.022 97.9266 107.275C97.4412 106.51 97.1799 105.651 97.1426 104.699H99.0746C99.1306 105.67 99.4946 106.491 100.167 107.163C100.857 107.816 101.949 108.143 103.443 108.143C104.824 108.143 105.776 107.872 106.299 107.331C106.84 106.79 107.111 106.174 107.111 105.483C107.111 104.774 106.905 104.251 106.495 103.915C106.084 103.579 105.561 103.327 104.927 103.159C104.311 102.991 103.667 102.832 102.995 102.683C102.117 102.459 101.268 102.216 100.447 101.955C99.6439 101.675 98.9812 101.274 98.4586 100.751C97.9546 100.228 97.7026 99.5097 97.7026 98.595C97.7026 97.4377 98.1412 96.5137 99.0186 95.823C99.9146 95.1137 101.165 94.759 102.771 94.759C104.003 94.759 105.02 94.955 105.823 95.347C106.644 95.739 107.269 96.271 107.699 96.943C108.147 97.5963 108.408 98.315 108.483 99.099H106.551C106.476 98.6697 106.317 98.2497 106.075 97.839C105.832 97.4097 105.449 97.055 104.927 96.775C104.423 96.495 103.704 96.355 102.771 96.355C101.744 96.355 100.96 96.5417 100.419 96.915C99.8772 97.2883 99.6066 97.811 99.6066 98.483C99.6066 99.0803 99.7932 99.5283 100.167 99.827C100.559 100.126 101.063 100.359 101.679 100.527C102.295 100.695 102.967 100.872 103.695 101.059ZM117.069 109.767C115.613 109.767 114.381 109.44 113.373 108.787C112.365 108.134 111.59 107.238 111.049 106.099C110.526 104.96 110.265 103.672 110.265 102.235C110.265 100.704 110.545 99.379 111.105 98.259C111.665 97.139 112.458 96.271 113.485 95.655C114.512 95.039 115.706 94.731 117.069 94.731C118.45 94.731 119.617 95.0297 120.569 95.627C121.521 96.2057 122.249 97.0177 122.753 98.063C123.257 99.0897 123.509 100.266 123.509 101.591C123.509 101.778 123.509 101.964 123.509 102.151C123.509 102.338 123.5 102.487 123.481 102.599H112.169C112.188 103.57 112.365 104.484 112.701 105.343C113.056 106.183 113.597 106.874 114.325 107.415C115.053 107.938 115.977 108.199 117.097 108.199C118.086 108.199 118.88 108.012 119.477 107.639C120.093 107.266 120.55 106.836 120.849 106.351C121.166 105.847 121.372 105.399 121.465 105.007H123.313C123.089 105.866 122.706 106.659 122.165 107.387C121.642 108.115 120.961 108.694 120.121 109.123C119.281 109.552 118.264 109.767 117.069 109.767ZM116.985 96.299C116.07 96.299 115.258 96.5043 114.549 96.915C113.84 97.3257 113.28 97.8857 112.869 98.595C112.458 99.3043 112.225 100.107 112.169 101.003H121.577C121.577 100.144 121.4 99.3603 121.045 98.651C120.69 97.9417 120.168 97.3723 119.477 96.943C118.805 96.5137 117.974 96.299 116.985 96.299ZM137.94 109.375V91.147H131.108V89.355H146.76V91.147H139.956V109.375H137.94ZM144.167 95.095H146.183L149.739 107.303H149.795L153.127 95.095H155.171L158.503 107.303H158.559L162.143 95.095H164.103L159.539 109.375H157.523L154.135 97.307H154.079L150.747 109.375H148.703L144.167 95.095ZM171.485 109.767C170.067 109.767 168.844 109.45 167.817 108.815C166.791 108.18 165.997 107.303 165.437 106.183C164.896 105.044 164.625 103.738 164.625 102.263C164.625 100.77 164.896 99.463 165.437 98.343C165.997 97.2043 166.791 96.3177 167.817 95.683C168.844 95.0483 170.067 94.731 171.485 94.731C172.904 94.731 174.127 95.0483 175.153 95.683C176.18 96.3177 176.964 97.2043 177.505 98.343C178.065 99.463 178.345 100.77 178.345 102.263C178.345 103.738 178.065 105.044 177.505 106.183C176.964 107.303 176.18 108.18 175.153 108.815C174.127 109.45 172.904 109.767 171.485 109.767ZM171.485 108.171C172.605 108.171 173.529 107.91 174.257 107.387C174.985 106.846 175.527 106.127 175.881 105.231C176.255 104.335 176.441 103.346 176.441 102.263C176.441 101.162 176.255 100.163 175.881 99.267C175.527 98.371 174.985 97.6617 174.257 97.139C173.529 96.5977 172.605 96.327 171.485 96.327C170.365 96.327 169.441 96.5977 168.713 97.139C167.985 97.6617 167.435 98.371 167.061 99.267C166.707 100.163 166.529 101.162 166.529 102.263C166.529 103.346 166.707 104.335 167.061 105.231C167.435 106.127 167.985 106.846 168.713 107.387C169.441 107.91 170.365 108.171 171.485 108.171ZM179.15 107.023H181.502V109.375H179.15V107.023Z" fill="#EEEEEC"/>
<rect x="17" y="114.375" width="2" height="40.375" fill="#EEEEEC"/>
<mask id="path-8-inside-1_587_10768" fill="white">
<path fill-rule="evenodd" clip-rule="evenodd" d="M19 154.75H17V156.75H8V183.75H17V185.75H19V183.75H28V156.75H19V154.75Z"/>
</mask>
<path d="M17 154.75V152.75H15V154.75H17ZM19 154.75H21V152.75H19V154.75ZM17 156.75V158.75H19V156.75H17ZM8 156.75V154.75H6V156.75H8ZM8 183.75H6V185.75H8V183.75ZM17 183.75H19V181.75H17V183.75ZM17 185.75H15V187.75H17V185.75ZM19 185.75V187.75H21V185.75H19ZM19 183.75V181.75H17V183.75H19ZM28 183.75V185.75H30V183.75H28ZM28 156.75H30V154.75H28V156.75ZM19 156.75H17V158.75H19V156.75ZM17 156.75H19V152.75H17V156.75ZM19 156.75V154.75H15V156.75H19ZM8 158.75H17V154.75H8V158.75ZM10 183.75V156.75H6V183.75H10ZM17 181.75H8V185.75H17V181.75ZM19 185.75V183.75H15V185.75H19ZM19 183.75H17V187.75H19V183.75ZM17 183.75V185.75H21V183.75H17ZM28 181.75H19V185.75H28V181.75ZM26 156.75V183.75H30V156.75H26ZM19 158.75H28V154.75H19V158.75ZM17 154.75V156.75H21V154.75H17Z" fill="url(#paint0_angular_587_10768)" mask="url(#path-8-inside-1_587_10768)"/>
<path d="M53.82 180.75V160.73H61.772C63.004 160.73 64.1053 160.926 65.076 161.318C66.0653 161.691 66.84 162.307 67.4 163.166C67.9787 164.025 68.268 165.154 68.268 166.554C68.268 167.954 67.9787 169.083 67.4 169.942C66.84 170.801 66.0653 171.426 65.076 171.818C64.1053 172.191 63.004 172.378 61.772 172.378H56.34V180.75H53.82ZM56.34 170.138H61.94C64.404 170.138 65.636 168.943 65.636 166.554C65.636 164.165 64.404 162.97 61.94 162.97H56.34V170.138ZM79.7885 171.342C79.7885 170.409 79.5458 169.625 79.0605 168.99C78.5938 168.355 77.8005 168.038 76.6805 168.038C75.4298 168.038 74.4125 168.402 73.6285 169.13C72.8631 169.839 72.4805 170.745 72.4805 171.846V180.75H70.2405V160.73H72.4805V168.178H72.5365C72.9098 167.674 73.4791 167.198 74.2445 166.75C75.0285 166.302 76.0271 166.078 77.2405 166.078C78.1178 166.078 78.9111 166.246 79.6205 166.582C80.3485 166.899 80.9271 167.403 81.3565 168.094C81.8045 168.785 82.0285 169.681 82.0285 170.782V180.75H79.7885V171.342ZM88.7588 181.142C87.3214 181.142 86.1734 180.769 85.3148 180.022C84.4748 179.257 84.0548 178.277 84.0548 177.082C84.0548 175.981 84.3068 175.122 84.8108 174.506C85.3148 173.89 86.0241 173.414 86.9388 173.078C87.8534 172.742 88.9268 172.462 90.1588 172.238C91.3721 172.014 92.2681 171.781 92.8468 171.538C93.4254 171.277 93.7148 170.801 93.7148 170.11C93.7148 169.55 93.5094 169.065 93.0988 168.654C92.7068 168.225 91.9228 168.01 90.7468 168.01C89.3841 168.01 88.4508 168.234 87.9468 168.682C87.4614 169.111 87.1814 169.849 87.1068 170.894H84.7548C84.8108 169.979 85.0441 169.158 85.4548 168.43C85.8841 167.702 86.5374 167.123 87.4148 166.694C88.2921 166.265 89.4308 166.05 90.8308 166.05C91.7268 166.05 92.5574 166.19 93.3228 166.47C94.0881 166.75 94.7041 167.226 95.1708 167.898C95.6561 168.57 95.8988 169.494 95.8988 170.67V177.53C95.8988 178.09 95.9454 178.51 96.0388 178.79C96.1508 179.07 96.3468 179.21 96.6268 179.21C96.6641 179.21 96.7108 179.21 96.7668 179.21C96.8228 179.21 96.8881 179.201 96.9628 179.182V180.75C96.7761 180.787 96.5988 180.815 96.4308 180.834C96.2628 180.871 96.0761 180.89 95.8708 180.89C95.2548 180.89 94.7601 180.741 94.3868 180.442C94.0321 180.125 93.8174 179.527 93.7428 178.65H93.6868C93.2201 179.415 92.5761 180.022 91.7548 180.47C90.9521 180.918 89.9534 181.142 88.7588 181.142ZM88.9828 179.182C90.3268 179.182 91.4468 178.865 92.3428 178.23C93.2574 177.595 93.7148 176.597 93.7148 175.234V172.966C93.5094 173.19 93.0894 173.395 92.4548 173.582C91.8201 173.769 91.1201 173.937 90.3548 174.086C88.9734 174.385 87.9654 174.739 87.3308 175.15C86.7148 175.542 86.4068 176.149 86.4068 176.97C86.4068 177.661 86.6028 178.202 86.9948 178.594C87.4054 178.986 88.0681 179.182 88.9828 179.182ZM104.627 172.266C105.262 172.415 105.896 172.583 106.531 172.77C107.184 172.957 107.772 173.218 108.295 173.554C108.836 173.871 109.266 174.291 109.583 174.814C109.9 175.318 110.059 175.962 110.059 176.746C110.059 178.09 109.555 179.163 108.547 179.966C107.558 180.75 106.148 181.142 104.319 181.142C102.266 181.142 100.688 180.657 99.5869 179.686C98.5042 178.697 97.9442 177.465 97.9069 175.99H100.259C100.296 176.569 100.446 177.101 100.707 177.586C100.968 178.071 101.388 178.463 101.967 178.762C102.564 179.042 103.348 179.182 104.319 179.182C105.234 179.182 105.934 179.061 106.419 178.818C106.904 178.575 107.24 178.277 107.427 177.922C107.614 177.549 107.707 177.185 107.707 176.83C107.707 176.177 107.511 175.691 107.119 175.374C106.727 175.057 106.242 174.833 105.663 174.702C105.084 174.553 104.496 174.413 103.899 174.282C103.283 174.151 102.648 174.002 101.995 173.834C101.36 173.647 100.772 173.405 100.231 173.106C99.7082 172.807 99.2789 172.415 98.9429 171.93C98.6255 171.445 98.4669 170.829 98.4669 170.082C98.4669 168.869 98.9242 167.898 99.8389 167.17C100.754 166.442 102.032 166.078 103.675 166.078C104.907 166.078 105.943 166.283 106.783 166.694C107.623 167.086 108.267 167.627 108.715 168.318C109.163 168.99 109.424 169.737 109.499 170.558H107.147C107.072 170.185 106.932 169.811 106.727 169.438C106.54 169.046 106.214 168.719 105.747 168.458C105.28 168.178 104.599 168.038 103.703 168.038C102.695 168.038 101.958 168.225 101.491 168.598C101.043 168.953 100.819 169.419 100.819 169.998C100.819 170.539 100.996 170.95 101.351 171.23C101.706 171.491 102.172 171.687 102.751 171.818C103.348 171.949 103.974 172.098 104.627 172.266ZM118.193 181.17C116.699 181.17 115.43 180.843 114.385 180.19C113.358 179.518 112.574 178.613 112.033 177.474C111.51 176.317 111.249 175.019 111.249 173.582C111.249 172.051 111.529 170.726 112.089 169.606C112.667 168.486 113.479 167.618 114.525 167.002C115.57 166.367 116.793 166.05 118.193 166.05C119.593 166.05 120.778 166.349 121.749 166.946C122.738 167.525 123.494 168.346 124.017 169.41C124.539 170.455 124.801 171.678 124.801 173.078C124.801 173.283 124.801 173.498 124.801 173.722C124.801 173.927 124.791 174.086 124.773 174.198H113.601C113.619 175.038 113.797 175.85 114.133 176.634C114.469 177.399 114.973 178.025 115.645 178.51C116.317 178.995 117.175 179.238 118.221 179.238C119.154 179.238 119.901 179.07 120.461 178.734C121.039 178.379 121.478 177.978 121.777 177.53C122.075 177.082 122.262 176.69 122.337 176.354H124.605C124.362 177.231 123.97 178.043 123.429 178.79C122.887 179.518 122.187 180.097 121.329 180.526C120.47 180.955 119.425 181.17 118.193 181.17ZM118.081 167.982C117.259 167.982 116.513 168.169 115.841 168.542C115.187 168.897 114.665 169.391 114.273 170.026C113.881 170.661 113.657 171.398 113.601 172.238H122.421C122.421 171.454 122.243 170.745 121.889 170.11C121.534 169.457 121.03 168.943 120.377 168.57C119.742 168.178 118.977 167.982 118.081 167.982ZM138.81 180.75V162.97H132.146V160.73H147.994V162.97H141.33V180.75H138.81ZM158.827 171.342C158.827 170.409 158.585 169.625 158.099 168.99C157.633 168.355 156.839 168.038 155.719 168.038C154.469 168.038 153.451 168.402 152.667 169.13C151.902 169.839 151.519 170.745 151.519 171.846V180.75H149.279V160.73H151.519V168.178H151.575C151.949 167.674 152.518 167.198 153.283 166.75C154.067 166.302 155.066 166.078 156.279 166.078C157.157 166.078 157.95 166.246 158.659 166.582C159.387 166.899 159.966 167.403 160.395 168.094C160.843 168.785 161.067 169.681 161.067 170.782V180.75H158.827V171.342ZM163.874 166.47H166.114V169.298H166.17C166.544 168.365 167.038 167.599 167.654 167.002C168.27 166.386 169.092 166.078 170.118 166.078C170.604 166.078 171.042 166.106 171.434 166.162V168.402C171.098 168.346 170.79 168.318 170.51 168.318C169.633 168.318 168.858 168.533 168.186 168.962C167.533 169.373 167.02 169.942 166.646 170.67C166.292 171.398 166.114 172.219 166.114 173.134V180.75H163.874V166.47ZM178.781 181.17C177.288 181.17 176.018 180.843 174.973 180.19C173.946 179.518 173.162 178.613 172.621 177.474C172.098 176.317 171.837 175.019 171.837 173.582C171.837 172.051 172.117 170.726 172.677 169.606C173.256 168.486 174.068 167.618 175.113 167.002C176.158 166.367 177.381 166.05 178.781 166.05C180.181 166.05 181.366 166.349 182.337 166.946C183.326 167.525 184.082 168.346 184.605 169.41C185.128 170.455 185.389 171.678 185.389 173.078C185.389 173.283 185.389 173.498 185.389 173.722C185.389 173.927 185.38 174.086 185.361 174.198H174.189C174.208 175.038 174.385 175.85 174.721 176.634C175.057 177.399 175.561 178.025 176.233 178.51C176.905 178.995 177.764 179.238 178.809 179.238C179.742 179.238 180.489 179.07 181.049 178.734C181.628 178.379 182.066 177.978 182.365 177.53C182.664 177.082 182.85 176.69 182.925 176.354H185.193C184.95 177.231 184.558 178.043 184.017 178.79C183.476 179.518 182.776 180.097 181.917 180.526C181.058 180.955 180.013 181.17 178.781 181.17ZM178.669 167.982C177.848 167.982 177.101 168.169 176.429 168.542C175.776 168.897 175.253 169.391 174.861 170.026C174.469 170.661 174.245 171.398 174.189 172.238H183.009C183.009 171.454 182.832 170.745 182.477 170.11C182.122 169.457 181.618 168.943 180.965 168.57C180.33 168.178 179.565 167.982 178.669 167.982ZM193.841 181.17C192.347 181.17 191.078 180.843 190.033 180.19C189.006 179.518 188.222 178.613 187.681 177.474C187.158 176.317 186.897 175.019 186.897 173.582C186.897 172.051 187.177 170.726 187.737 169.606C188.315 168.486 189.127 167.618 190.173 167.002C191.218 166.367 192.441 166.05 193.841 166.05C195.241 166.05 196.426 166.349 197.397 166.946C198.386 167.525 199.142 168.346 199.665 169.41C200.187 170.455 200.449 171.678 200.449 173.078C200.449 173.283 200.449 173.498 200.449 173.722C200.449 173.927 200.439 174.086 200.421 174.198H189.249C189.267 175.038 189.445 175.85 189.781 176.634C190.117 177.399 190.621 178.025 191.293 178.51C191.965 178.995 192.823 179.238 193.869 179.238C194.802 179.238 195.549 179.07 196.109 178.734C196.687 178.379 197.126 177.978 197.425 177.53C197.723 177.082 197.91 176.69 197.985 176.354H200.253C200.01 177.231 199.618 178.043 199.077 178.79C198.535 179.518 197.835 180.097 196.977 180.526C196.118 180.955 195.073 181.17 193.841 181.17ZM193.729 167.982C192.907 167.982 192.161 168.169 191.489 168.542C190.835 168.897 190.313 169.391 189.921 170.026C189.529 170.661 189.305 171.398 189.249 172.238H198.069C198.069 171.454 197.891 170.745 197.537 170.11C197.182 169.457 196.678 168.943 196.025 168.57C195.39 168.178 194.625 167.982 193.729 167.982ZM201.203 178.062H203.891V180.75H201.203V178.062Z" fill="url(#paint1_angular_587_10768)"/>
<g opacity="0.25">
<rect x="17" y="185.75" width="2" height="40.375" fill="#EEEEEC"/>
</g>
<g opacity="0.25">
<mask id="path-12-inside-2_587_10768" fill="white">
<path fill-rule="evenodd" clip-rule="evenodd" d="M19 226.125H17V228.125H8V255.125H17V257.125H19V255.125H28V228.125H19V226.125Z"/>
</mask>
<path d="M17 226.125V224.125H15V226.125H17ZM19 226.125H21V224.125H19V226.125ZM17 228.125V230.125H19V228.125H17ZM8 228.125V226.125H6V228.125H8ZM8 255.125H6V257.125H8V255.125ZM17 255.125H19V253.125H17V255.125ZM17 257.125H15V259.125H17V257.125ZM19 257.125V259.125H21V257.125H19ZM19 255.125V253.125H17V255.125H19ZM28 255.125V257.125H30V255.125H28ZM28 228.125H30V226.125H28V228.125ZM19 228.125H17V230.125H19V228.125ZM17 228.125H19V224.125H17V228.125ZM19 228.125V226.125H15V228.125H19ZM8 230.125H17V226.125H8V230.125ZM10 255.125V228.125H6V255.125H10ZM17 253.125H8V257.125H17V253.125ZM19 257.125V255.125H15V257.125H19ZM19 255.125H17V259.125H19V255.125ZM17 255.125V257.125H21V255.125H17ZM28 253.125H19V257.125H28V253.125ZM26 228.125V255.125H30V228.125H26ZM19 230.125H28V226.125H19V230.125ZM17 226.125V228.125H21V226.125H17Z" fill="#EEEEEC" mask="url(#path-12-inside-2_587_10768)"/>
<path d="M53.904 252.125V232.105H61.604C62.836 232.105 63.9373 232.301 64.908 232.693C65.8787 233.066 66.644 233.673 67.204 234.513C67.764 235.353 68.044 236.473 68.044 237.873C68.044 239.273 67.764 240.402 67.204 241.261C66.644 242.101 65.8787 242.717 64.908 243.109C63.9373 243.482 62.836 243.669 61.604 243.669H55.948V252.125H53.904ZM55.948 241.877H61.8C63.144 241.877 64.1613 241.55 64.852 240.897C65.5613 240.244 65.916 239.236 65.916 237.873C65.916 236.51 65.5613 235.512 64.852 234.877C64.1613 234.224 63.144 233.897 61.8 233.897H55.948V241.877ZM79.7364 242.493C79.7364 241.877 79.6337 241.317 79.4284 240.813C79.2231 240.29 78.8777 239.88 78.3924 239.581C77.9071 239.264 77.2537 239.105 76.4324 239.105C75.5364 239.105 74.7524 239.292 74.0804 239.665C73.4084 240.038 72.8857 240.533 72.5124 241.149C72.1391 241.746 71.9524 242.4 71.9524 243.109V252.125H70.1324V232.105H71.9524V239.889H72.0084C72.4004 239.292 72.9884 238.75 73.7724 238.265C74.5751 237.761 75.6111 237.509 76.8804 237.509C77.7391 237.509 78.5137 237.677 79.2044 238.013C79.9137 238.33 80.4831 238.825 80.9124 239.497C81.3417 240.169 81.5564 241.037 81.5564 242.101V252.125H79.7364V242.493ZM88.2933 252.489C86.8746 252.489 85.7359 252.125 84.8773 251.397C84.0373 250.669 83.6173 249.708 83.6173 248.513C83.6173 247.486 83.8506 246.674 84.3173 246.077C84.7839 245.461 85.4559 244.985 86.3333 244.649C87.2106 244.313 88.2653 244.033 89.4973 243.809C90.2813 243.66 90.9626 243.52 91.5413 243.389C92.1199 243.258 92.5679 243.053 92.8853 242.773C93.2026 242.493 93.3613 242.073 93.3613 241.513C93.3613 240.785 93.1093 240.197 92.6053 239.749C92.1013 239.301 91.2706 239.077 90.1133 239.077C88.7506 239.077 87.7799 239.329 87.2013 239.833C86.6226 240.337 86.2959 241.112 86.2213 242.157H84.3173C84.3733 241.317 84.5973 240.542 84.9893 239.833C85.3813 239.124 85.9973 238.554 86.8373 238.125C87.6959 237.696 88.8159 237.481 90.1973 237.481C91.0746 237.481 91.8866 237.621 92.6333 237.901C93.3986 238.181 94.0053 238.657 94.4533 239.329C94.9199 239.982 95.1533 240.878 95.1533 242.017V249.157C95.1533 249.736 95.2093 250.165 95.3213 250.445C95.4333 250.706 95.6386 250.837 95.9373 250.837C96.0866 250.837 96.2173 250.828 96.3293 250.809V252.125C96.1799 252.144 96.0213 252.162 95.8533 252.181C95.7039 252.218 95.5453 252.237 95.3773 252.237C94.7986 252.237 94.3319 252.088 93.9773 251.789C93.6226 251.472 93.4266 250.865 93.3893 249.969H93.3333C92.8293 250.772 92.1573 251.397 91.3173 251.845C90.4773 252.274 89.4693 252.489 88.2933 252.489ZM88.5173 250.893C89.9919 250.893 91.1679 250.529 92.0453 249.801C92.9226 249.073 93.3613 248.065 93.3613 246.777V244.117C93.1559 244.416 92.7079 244.658 92.0173 244.845C91.3453 245.013 90.5799 245.172 89.7213 245.321C88.3399 245.564 87.2946 245.9 86.5853 246.329C85.8759 246.758 85.5213 247.43 85.5213 248.345C85.5213 249.166 85.7639 249.801 86.2493 250.249C86.7346 250.678 87.4906 250.893 88.5173 250.893ZM103.695 243.809C104.591 244.014 105.44 244.266 106.243 244.565C107.064 244.864 107.727 245.293 108.231 245.853C108.753 246.413 109.015 247.188 109.015 248.177C109.015 249.484 108.52 250.529 107.531 251.313C106.56 252.097 105.188 252.489 103.415 252.489C102.089 252.489 100.96 252.265 100.027 251.817C99.1119 251.369 98.4119 250.772 97.9266 250.025C97.4412 249.26 97.1799 248.401 97.1426 247.449H99.0746C99.1306 248.42 99.4946 249.241 100.167 249.913C100.857 250.566 101.949 250.893 103.443 250.893C104.824 250.893 105.776 250.622 106.299 250.081C106.84 249.54 107.111 248.924 107.111 248.233C107.111 247.524 106.905 247.001 106.495 246.665C106.084 246.329 105.561 246.077 104.927 245.909C104.311 245.741 103.667 245.582 102.995 245.433C102.117 245.209 101.268 244.966 100.447 244.705C99.6439 244.425 98.9812 244.024 98.4586 243.501C97.9546 242.978 97.7026 242.26 97.7026 241.345C97.7026 240.188 98.1412 239.264 99.0186 238.573C99.9146 237.864 101.165 237.509 102.771 237.509C104.003 237.509 105.02 237.705 105.823 238.097C106.644 238.489 107.269 239.021 107.699 239.693C108.147 240.346 108.408 241.065 108.483 241.849H106.551C106.476 241.42 106.317 241 106.075 240.589C105.832 240.16 105.449 239.805 104.927 239.525C104.423 239.245 103.704 239.105 102.771 239.105C101.744 239.105 100.96 239.292 100.419 239.665C99.8772 240.038 99.6066 240.561 99.6066 241.233C99.6066 241.83 99.7932 242.278 100.167 242.577C100.559 242.876 101.063 243.109 101.679 243.277C102.295 243.445 102.967 243.622 103.695 243.809ZM117.069 252.517C115.613 252.517 114.381 252.19 113.373 251.537C112.365 250.884 111.59 249.988 111.049 248.849C110.526 247.71 110.265 246.422 110.265 244.985C110.265 243.454 110.545 242.129 111.105 241.009C111.665 239.889 112.458 239.021 113.485 238.405C114.512 237.789 115.706 237.481 117.069 237.481C118.45 237.481 119.617 237.78 120.569 238.377C121.521 238.956 122.249 239.768 122.753 240.813C123.257 241.84 123.509 243.016 123.509 244.341C123.509 244.528 123.509 244.714 123.509 244.901C123.509 245.088 123.5 245.237 123.481 245.349H112.169C112.188 246.32 112.365 247.234 112.701 248.093C113.056 248.933 113.597 249.624 114.325 250.165C115.053 250.688 115.977 250.949 117.097 250.949C118.086 250.949 118.88 250.762 119.477 250.389C120.093 250.016 120.55 249.586 120.849 249.101C121.166 248.597 121.372 248.149 121.465 247.757H123.313C123.089 248.616 122.706 249.409 122.165 250.137C121.642 250.865 120.961 251.444 120.121 251.873C119.281 252.302 118.264 252.517 117.069 252.517ZM116.985 239.049C116.07 239.049 115.258 239.254 114.549 239.665C113.84 240.076 113.28 240.636 112.869 241.345C112.458 242.054 112.225 242.857 112.169 243.753H121.577C121.577 242.894 121.4 242.11 121.045 241.401C120.69 240.692 120.168 240.122 119.477 239.693C118.805 239.264 117.974 239.049 116.985 239.049ZM134.44 240.981H143.764V242.773H134.44V252.125H132.396V232.105H145.78V233.897H134.44V240.981ZM152.023 252.517C150.605 252.517 149.382 252.2 148.355 251.565C147.329 250.93 146.535 250.053 145.975 248.933C145.434 247.794 145.163 246.488 145.163 245.013C145.163 243.52 145.434 242.213 145.975 241.093C146.535 239.954 147.329 239.068 148.355 238.433C149.382 237.798 150.605 237.481 152.023 237.481C153.442 237.481 154.665 237.798 155.691 238.433C156.718 239.068 157.502 239.954 158.043 241.093C158.603 242.213 158.883 243.52 158.883 245.013C158.883 246.488 158.603 247.794 158.043 248.933C157.502 250.053 156.718 250.93 155.691 251.565C154.665 252.2 153.442 252.517 152.023 252.517ZM152.023 250.921C153.143 250.921 154.067 250.66 154.795 250.137C155.523 249.596 156.065 248.877 156.419 247.981C156.793 247.085 156.979 246.096 156.979 245.013C156.979 243.912 156.793 242.913 156.419 242.017C156.065 241.121 155.523 240.412 154.795 239.889C154.067 239.348 153.143 239.077 152.023 239.077C150.903 239.077 149.979 239.348 149.251 239.889C148.523 240.412 147.973 241.121 147.599 242.017C147.245 242.913 147.067 243.912 147.067 245.013C147.067 246.096 147.245 247.085 147.599 247.981C147.973 248.877 148.523 249.596 149.251 250.137C149.979 250.66 150.903 250.921 152.023 250.921ZM162.766 247.477C162.766 248.074 162.869 248.634 163.074 249.157C163.28 249.68 163.625 250.1 164.11 250.417C164.596 250.716 165.249 250.865 166.07 250.865C166.966 250.865 167.75 250.678 168.422 250.305C169.094 249.932 169.617 249.437 169.99 248.821C170.364 248.205 170.55 247.552 170.55 246.861V237.845H172.37V252.125H170.55V250.109H170.494C170.102 250.688 169.505 251.229 168.702 251.733C167.918 252.218 166.892 252.461 165.622 252.461C164.764 252.461 163.98 252.302 163.27 251.985C162.561 251.649 161.992 251.145 161.562 250.473C161.152 249.782 160.946 248.914 160.946 247.869V237.845H162.766V247.477ZM175.408 237.845H177.228V240.757H177.284C177.639 239.824 178.143 239.049 178.796 238.433C179.468 237.817 180.317 237.509 181.344 237.509C181.811 237.509 182.221 237.537 182.576 237.593V239.385C182.277 239.329 181.988 239.301 181.708 239.301C180.849 239.301 180.075 239.516 179.384 239.945C178.712 240.356 178.18 240.925 177.788 241.653C177.415 242.381 177.228 243.212 177.228 244.145V252.125H175.408V237.845ZM182.506 249.773H184.858V252.125H182.506V249.773Z" fill="#EEEEEC"/>
</g>
<g opacity="0.25">
<rect x="17" y="257.125" width="2" height="40.375" fill="#EEEEEC"/>
</g>
<g opacity="0.25">
<mask id="path-16-inside-3_587_10768" fill="white">
<path fill-rule="evenodd" clip-rule="evenodd" d="M19 297.5H17V299.5H8V326.5H17V328.5H19V326.5H28V299.5H19V297.5Z"/>
</mask>
<path d="M17 297.5V295.5H15V297.5H17ZM19 297.5H21V295.5H19V297.5ZM17 299.5V301.5H19V299.5H17ZM8 299.5V297.5H6V299.5H8ZM8 326.5H6V328.5H8V326.5ZM17 326.5H19V324.5H17V326.5ZM17 328.5H15V330.5H17V328.5ZM19 328.5V330.5H21V328.5H19ZM19 326.5V324.5H17V326.5H19ZM28 326.5V328.5H30V326.5H28ZM28 299.5H30V297.5H28V299.5ZM19 299.5H17V301.5H19V299.5ZM17 299.5H19V295.5H17V299.5ZM19 299.5V297.5H15V299.5H19ZM8 301.5H17V297.5H8V301.5ZM10 326.5V299.5H6V326.5H10ZM17 324.5H8V328.5H17V324.5ZM19 328.5V326.5H15V328.5H19ZM19 326.5H17V330.5H19V326.5ZM17 326.5V328.5H21V326.5H17ZM28 324.5H19V328.5H28V324.5ZM26 299.5V326.5H30V299.5H26ZM19 301.5H28V297.5H19V301.5ZM17 297.5V299.5H21V297.5H17Z" fill="#EEEEEC" mask="url(#path-16-inside-3_587_10768)"/>
<path d="M53.904 323.5V303.48H61.604C62.836 303.48 63.9373 303.676 64.908 304.068C65.8787 304.441 66.644 305.048 67.204 305.888C67.764 306.728 68.044 307.848 68.044 309.248C68.044 310.648 67.764 311.777 67.204 312.636C66.644 313.476 65.8787 314.092 64.908 314.484C63.9373 314.857 62.836 315.044 61.604 315.044H55.948V323.5H53.904ZM55.948 313.252H61.8C63.144 313.252 64.1613 312.925 64.852 312.272C65.5613 311.619 65.916 310.611 65.916 309.248C65.916 307.885 65.5613 306.887 64.852 306.252C64.1613 305.599 63.144 305.272 61.8 305.272H55.948V313.252ZM79.7364 313.868C79.7364 313.252 79.6337 312.692 79.4284 312.188C79.2231 311.665 78.8777 311.255 78.3924 310.956C77.9071 310.639 77.2537 310.48 76.4324 310.48C75.5364 310.48 74.7524 310.667 74.0804 311.04C73.4084 311.413 72.8857 311.908 72.5124 312.524C72.1391 313.121 71.9524 313.775 71.9524 314.484V323.5H70.1324V303.48H71.9524V311.264H72.0084C72.4004 310.667 72.9884 310.125 73.7724 309.64C74.5751 309.136 75.6111 308.884 76.8804 308.884C77.7391 308.884 78.5137 309.052 79.2044 309.388C79.9137 309.705 80.4831 310.2 80.9124 310.872C81.3417 311.544 81.5564 312.412 81.5564 313.476V323.5H79.7364V313.868ZM88.2933 323.864C86.8746 323.864 85.7359 323.5 84.8773 322.772C84.0373 322.044 83.6173 321.083 83.6173 319.888C83.6173 318.861 83.8506 318.049 84.3173 317.452C84.7839 316.836 85.4559 316.36 86.3333 316.024C87.2106 315.688 88.2653 315.408 89.4973 315.184C90.2813 315.035 90.9626 314.895 91.5413 314.764C92.1199 314.633 92.5679 314.428 92.8853 314.148C93.2026 313.868 93.3613 313.448 93.3613 312.888C93.3613 312.16 93.1093 311.572 92.6053 311.124C92.1013 310.676 91.2706 310.452 90.1133 310.452C88.7506 310.452 87.7799 310.704 87.2013 311.208C86.6226 311.712 86.2959 312.487 86.2213 313.532H84.3173C84.3733 312.692 84.5973 311.917 84.9893 311.208C85.3813 310.499 85.9973 309.929 86.8373 309.5C87.6959 309.071 88.8159 308.856 90.1973 308.856C91.0746 308.856 91.8866 308.996 92.6333 309.276C93.3986 309.556 94.0053 310.032 94.4533 310.704C94.9199 311.357 95.1533 312.253 95.1533 313.392V320.532C95.1533 321.111 95.2093 321.54 95.3213 321.82C95.4333 322.081 95.6386 322.212 95.9373 322.212C96.0866 322.212 96.2173 322.203 96.3293 322.184V323.5C96.1799 323.519 96.0213 323.537 95.8533 323.556C95.7039 323.593 95.5453 323.612 95.3773 323.612C94.7986 323.612 94.3319 323.463 93.9773 323.164C93.6226 322.847 93.4266 322.24 93.3893 321.344H93.3333C92.8293 322.147 92.1573 322.772 91.3173 323.22C90.4773 323.649 89.4693 323.864 88.2933 323.864ZM88.5173 322.268C89.9919 322.268 91.1679 321.904 92.0453 321.176C92.9226 320.448 93.3613 319.44 93.3613 318.152V315.492C93.1559 315.791 92.7079 316.033 92.0173 316.22C91.3453 316.388 90.5799 316.547 89.7213 316.696C88.3399 316.939 87.2946 317.275 86.5853 317.704C85.8759 318.133 85.5213 318.805 85.5213 319.72C85.5213 320.541 85.7639 321.176 86.2493 321.624C86.7346 322.053 87.4906 322.268 88.5173 322.268ZM103.695 315.184C104.591 315.389 105.44 315.641 106.243 315.94C107.064 316.239 107.727 316.668 108.231 317.228C108.753 317.788 109.015 318.563 109.015 319.552C109.015 320.859 108.52 321.904 107.531 322.688C106.56 323.472 105.188 323.864 103.415 323.864C102.089 323.864 100.96 323.64 100.027 323.192C99.1119 322.744 98.4119 322.147 97.9266 321.4C97.4412 320.635 97.1799 319.776 97.1426 318.824H99.0746C99.1306 319.795 99.4946 320.616 100.167 321.288C100.857 321.941 101.949 322.268 103.443 322.268C104.824 322.268 105.776 321.997 106.299 321.456C106.84 320.915 107.111 320.299 107.111 319.608C107.111 318.899 106.905 318.376 106.495 318.04C106.084 317.704 105.561 317.452 104.927 317.284C104.311 317.116 103.667 316.957 102.995 316.808C102.117 316.584 101.268 316.341 100.447 316.08C99.6439 315.8 98.9812 315.399 98.4586 314.876C97.9546 314.353 97.7026 313.635 97.7026 312.72C97.7026 311.563 98.1412 310.639 99.0186 309.948C99.9146 309.239 101.165 308.884 102.771 308.884C104.003 308.884 105.02 309.08 105.823 309.472C106.644 309.864 107.269 310.396 107.699 311.068C108.147 311.721 108.408 312.44 108.483 313.224H106.551C106.476 312.795 106.317 312.375 106.075 311.964C105.832 311.535 105.449 311.18 104.927 310.9C104.423 310.62 103.704 310.48 102.771 310.48C101.744 310.48 100.96 310.667 100.419 311.04C99.8772 311.413 99.6066 311.936 99.6066 312.608C99.6066 313.205 99.7932 313.653 100.167 313.952C100.559 314.251 101.063 314.484 101.679 314.652C102.295 314.82 102.967 314.997 103.695 315.184ZM117.069 323.892C115.613 323.892 114.381 323.565 113.373 322.912C112.365 322.259 111.59 321.363 111.049 320.224C110.526 319.085 110.265 317.797 110.265 316.36C110.265 314.829 110.545 313.504 111.105 312.384C111.665 311.264 112.458 310.396 113.485 309.78C114.512 309.164 115.706 308.856 117.069 308.856C118.45 308.856 119.617 309.155 120.569 309.752C121.521 310.331 122.249 311.143 122.753 312.188C123.257 313.215 123.509 314.391 123.509 315.716C123.509 315.903 123.509 316.089 123.509 316.276C123.509 316.463 123.5 316.612 123.481 316.724H112.169C112.188 317.695 112.365 318.609 112.701 319.468C113.056 320.308 113.597 320.999 114.325 321.54C115.053 322.063 115.977 322.324 117.097 322.324C118.086 322.324 118.88 322.137 119.477 321.764C120.093 321.391 120.55 320.961 120.849 320.476C121.166 319.972 121.372 319.524 121.465 319.132H123.313C123.089 319.991 122.706 320.784 122.165 321.512C121.642 322.24 120.961 322.819 120.121 323.248C119.281 323.677 118.264 323.892 117.069 323.892ZM116.985 310.424C116.07 310.424 115.258 310.629 114.549 311.04C113.84 311.451 113.28 312.011 112.869 312.72C112.458 313.429 112.225 314.232 112.169 315.128H121.577C121.577 314.269 121.4 313.485 121.045 312.776C120.69 312.067 120.168 311.497 119.477 311.068C118.805 310.639 117.974 310.424 116.985 310.424ZM134.44 312.356H143.764V314.148H134.44V323.5H132.396V303.48H145.78V305.272H134.44V312.356ZM146.95 304.012H149.302V306.364H146.95V304.012ZM147.23 309.22H149.05V323.5H147.23V309.22ZM150.582 309.22H152.598L156.882 321.652H156.91L161.166 309.22H163.126L157.89 323.5H155.818L150.582 309.22ZM170.274 323.892C168.818 323.892 167.586 323.565 166.578 322.912C165.57 322.259 164.796 321.363 164.254 320.224C163.732 319.085 163.47 317.797 163.47 316.36C163.47 314.829 163.75 313.504 164.31 312.384C164.87 311.264 165.664 310.396 166.69 309.78C167.717 309.164 168.912 308.856 170.274 308.856C171.656 308.856 172.822 309.155 173.774 309.752C174.726 310.331 175.454 311.143 175.958 312.188C176.462 313.215 176.714 314.391 176.714 315.716C176.714 315.903 176.714 316.089 176.714 316.276C176.714 316.463 176.705 316.612 176.686 316.724H165.374C165.393 317.695 165.57 318.609 165.906 319.468C166.261 320.308 166.802 320.999 167.53 321.54C168.258 322.063 169.182 322.324 170.302 322.324C171.292 322.324 172.085 322.137 172.682 321.764C173.298 321.391 173.756 320.961 174.054 320.476C174.372 319.972 174.577 319.524 174.67 319.132H176.518C176.294 319.991 175.912 320.784 175.37 321.512C174.848 322.24 174.166 322.819 173.326 323.248C172.486 323.677 171.469 323.892 170.274 323.892ZM170.19 310.424C169.276 310.424 168.464 310.629 167.754 311.04C167.045 311.451 166.485 312.011 166.074 312.72C165.664 313.429 165.43 314.232 165.374 315.128H174.782C174.782 314.269 174.605 313.485 174.25 312.776C173.896 312.067 173.373 311.497 172.682 311.068C172.01 310.639 171.18 310.424 170.19 310.424ZM177.53 321.148H179.882V323.5H177.53V321.148Z" fill="#EEEEEC"/>
</g>
<g opacity="0.25">
<rect x="17" y="328.5" width="2" height="40.375" fill="#EEEEEC"/>
</g>
<g opacity="0.25">
<mask id="path-20-inside-4_587_10768" fill="white">
<path fill-rule="evenodd" clip-rule="evenodd" d="M19 368.875H17V370.875H8V397.875H17V399.875H19V397.875H28V370.875H19V368.875Z"/>
</mask>
<path d="M17 368.875V366.875H15V368.875H17ZM19 368.875H21V366.875H19V368.875ZM17 370.875V372.875H19V370.875H17ZM8 370.875V368.875H6V370.875H8ZM8 397.875H6V399.875H8V397.875ZM17 397.875H19V395.875H17V397.875ZM17 399.875H15V401.875H17V399.875ZM19 399.875V401.875H21V399.875H19ZM19 397.875V395.875H17V397.875H19ZM28 397.875V399.875H30V397.875H28ZM28 370.875H30V368.875H28V370.875ZM19 370.875H17V372.875H19V370.875ZM17 370.875H19V366.875H17V370.875ZM19 370.875V368.875H15V370.875H19ZM8 372.875H17V368.875H8V372.875ZM10 397.875V370.875H6V397.875H10ZM17 395.875H8V399.875H17V395.875ZM19 399.875V397.875H15V399.875H19ZM19 397.875H17V401.875H19V397.875ZM17 397.875V399.875H21V397.875H17ZM28 395.875H19V399.875H28V395.875ZM26 370.875V397.875H30V370.875H26ZM19 372.875H28V368.875H19V372.875ZM17 368.875V370.875H21V368.875H17Z" fill="#EEEEEC" mask="url(#path-20-inside-4_587_10768)"/>
<path d="M53.904 394.875V374.855H61.604C62.836 374.855 63.9373 375.051 64.908 375.443C65.8787 375.816 66.644 376.423 67.204 377.263C67.764 378.103 68.044 379.223 68.044 380.623C68.044 382.023 67.764 383.152 67.204 384.011C66.644 384.851 65.8787 385.467 64.908 385.859C63.9373 386.232 62.836 386.419 61.604 386.419H55.948V394.875H53.904ZM55.948 384.627H61.8C63.144 384.627 64.1613 384.3 64.852 383.647C65.5613 382.994 65.916 381.986 65.916 380.623C65.916 379.26 65.5613 378.262 64.852 377.627C64.1613 376.974 63.144 376.647 61.8 376.647H55.948V384.627ZM79.7364 385.243C79.7364 384.627 79.6337 384.067 79.4284 383.563C79.2231 383.04 78.8777 382.63 78.3924 382.331C77.9071 382.014 77.2537 381.855 76.4324 381.855C75.5364 381.855 74.7524 382.042 74.0804 382.415C73.4084 382.788 72.8857 383.283 72.5124 383.899C72.1391 384.496 71.9524 385.15 71.9524 385.859V394.875H70.1324V374.855H71.9524V382.639H72.0084C72.4004 382.042 72.9884 381.5 73.7724 381.015C74.5751 380.511 75.6111 380.259 76.8804 380.259C77.7391 380.259 78.5137 380.427 79.2044 380.763C79.9137 381.08 80.4831 381.575 80.9124 382.247C81.3417 382.919 81.5564 383.787 81.5564 384.851V394.875H79.7364V385.243ZM88.2933 395.239C86.8746 395.239 85.7359 394.875 84.8773 394.147C84.0373 393.419 83.6173 392.458 83.6173 391.263C83.6173 390.236 83.8506 389.424 84.3173 388.827C84.7839 388.211 85.4559 387.735 86.3333 387.399C87.2106 387.063 88.2653 386.783 89.4973 386.559C90.2813 386.41 90.9626 386.27 91.5413 386.139C92.1199 386.008 92.5679 385.803 92.8853 385.523C93.2026 385.243 93.3613 384.823 93.3613 384.263C93.3613 383.535 93.1093 382.947 92.6053 382.499C92.1013 382.051 91.2706 381.827 90.1133 381.827C88.7506 381.827 87.7799 382.079 87.2013 382.583C86.6226 383.087 86.2959 383.862 86.2213 384.907H84.3173C84.3733 384.067 84.5973 383.292 84.9893 382.583C85.3813 381.874 85.9973 381.304 86.8373 380.875C87.6959 380.446 88.8159 380.231 90.1973 380.231C91.0746 380.231 91.8866 380.371 92.6333 380.651C93.3986 380.931 94.0053 381.407 94.4533 382.079C94.9199 382.732 95.1533 383.628 95.1533 384.767V391.907C95.1533 392.486 95.2093 392.915 95.3213 393.195C95.4333 393.456 95.6386 393.587 95.9373 393.587C96.0866 393.587 96.2173 393.578 96.3293 393.559V394.875C96.1799 394.894 96.0213 394.912 95.8533 394.931C95.7039 394.968 95.5453 394.987 95.3773 394.987C94.7986 394.987 94.3319 394.838 93.9773 394.539C93.6226 394.222 93.4266 393.615 93.3893 392.719H93.3333C92.8293 393.522 92.1573 394.147 91.3173 394.595C90.4773 395.024 89.4693 395.239 88.2933 395.239ZM88.5173 393.643C89.9919 393.643 91.1679 393.279 92.0453 392.551C92.9226 391.823 93.3613 390.815 93.3613 389.527V386.867C93.1559 387.166 92.7079 387.408 92.0173 387.595C91.3453 387.763 90.5799 387.922 89.7213 388.071C88.3399 388.314 87.2946 388.65 86.5853 389.079C85.8759 389.508 85.5213 390.18 85.5213 391.095C85.5213 391.916 85.7639 392.551 86.2493 392.999C86.7346 393.428 87.4906 393.643 88.5173 393.643ZM103.695 386.559C104.591 386.764 105.44 387.016 106.243 387.315C107.064 387.614 107.727 388.043 108.231 388.603C108.753 389.163 109.015 389.938 109.015 390.927C109.015 392.234 108.52 393.279 107.531 394.063C106.56 394.847 105.188 395.239 103.415 395.239C102.089 395.239 100.96 395.015 100.027 394.567C99.1119 394.119 98.4119 393.522 97.9266 392.775C97.4412 392.01 97.1799 391.151 97.1426 390.199H99.0746C99.1306 391.17 99.4946 391.991 100.167 392.663C100.857 393.316 101.949 393.643 103.443 393.643C104.824 393.643 105.776 393.372 106.299 392.831C106.84 392.29 107.111 391.674 107.111 390.983C107.111 390.274 106.905 389.751 106.495 389.415C106.084 389.079 105.561 388.827 104.927 388.659C104.311 388.491 103.667 388.332 102.995 388.183C102.117 387.959 101.268 387.716 100.447 387.455C99.6439 387.175 98.9812 386.774 98.4586 386.251C97.9546 385.728 97.7026 385.01 97.7026 384.095C97.7026 382.938 98.1412 382.014 99.0186 381.323C99.9146 380.614 101.165 380.259 102.771 380.259C104.003 380.259 105.02 380.455 105.823 380.847C106.644 381.239 107.269 381.771 107.699 382.443C108.147 383.096 108.408 383.815 108.483 384.599H106.551C106.476 384.17 106.317 383.75 106.075 383.339C105.832 382.91 105.449 382.555 104.927 382.275C104.423 381.995 103.704 381.855 102.771 381.855C101.744 381.855 100.96 382.042 100.419 382.415C99.8772 382.788 99.6066 383.311 99.6066 383.983C99.6066 384.58 99.7932 385.028 100.167 385.327C100.559 385.626 101.063 385.859 101.679 386.027C102.295 386.195 102.967 386.372 103.695 386.559ZM117.069 395.267C115.613 395.267 114.381 394.94 113.373 394.287C112.365 393.634 111.59 392.738 111.049 391.599C110.526 390.46 110.265 389.172 110.265 387.735C110.265 386.204 110.545 384.879 111.105 383.759C111.665 382.639 112.458 381.771 113.485 381.155C114.512 380.539 115.706 380.231 117.069 380.231C118.45 380.231 119.617 380.53 120.569 381.127C121.521 381.706 122.249 382.518 122.753 383.563C123.257 384.59 123.509 385.766 123.509 387.091C123.509 387.278 123.509 387.464 123.509 387.651C123.509 387.838 123.5 387.987 123.481 388.099H112.169C112.188 389.07 112.365 389.984 112.701 390.843C113.056 391.683 113.597 392.374 114.325 392.915C115.053 393.438 115.977 393.699 117.097 393.699C118.086 393.699 118.88 393.512 119.477 393.139C120.093 392.766 120.55 392.336 120.849 391.851C121.166 391.347 121.372 390.899 121.465 390.507H123.313C123.089 391.366 122.706 392.159 122.165 392.887C121.642 393.615 120.961 394.194 120.121 394.623C119.281 395.052 118.264 395.267 117.069 395.267ZM116.985 381.799C116.07 381.799 115.258 382.004 114.549 382.415C113.84 382.826 113.28 383.386 112.869 384.095C112.458 384.804 112.225 385.607 112.169 386.503H121.577C121.577 385.644 121.4 384.86 121.045 384.151C120.69 383.442 120.168 382.872 119.477 382.443C118.805 382.014 117.974 381.799 116.985 381.799ZM139.62 383.451C140.647 383.675 141.599 383.927 142.476 384.207C143.353 384.468 144.119 384.814 144.772 385.243C145.444 385.672 145.967 386.223 146.34 386.895C146.713 387.567 146.9 388.407 146.9 389.415C146.9 390.498 146.648 391.478 146.144 392.355C145.64 393.232 144.865 393.932 143.82 394.455C142.793 394.978 141.487 395.239 139.9 395.239C138.276 395.239 136.839 394.968 135.588 394.427C134.337 393.886 133.339 393.092 132.592 392.047C131.845 391.002 131.425 389.732 131.332 388.239H133.46C133.609 389.788 134.179 391.048 135.168 392.019C136.176 392.971 137.725 393.447 139.816 393.447C141.048 393.447 142.028 393.27 142.756 392.915C143.484 392.56 143.997 392.084 144.296 391.487C144.613 390.871 144.772 390.199 144.772 389.471C144.791 388.482 144.567 387.726 144.1 387.203C143.633 386.68 142.943 386.27 142.028 385.971C141.113 385.672 139.975 385.374 138.612 385.075C137.791 384.888 136.997 384.674 136.232 384.431C135.467 384.17 134.776 383.843 134.16 383.451C133.544 383.059 133.059 382.555 132.704 381.939C132.349 381.323 132.172 380.558 132.172 379.643C132.172 378.038 132.769 376.778 133.964 375.863C135.159 374.948 136.773 374.491 138.808 374.491C140.992 374.491 142.737 375.023 144.044 376.087C145.351 377.151 146.079 378.663 146.228 380.623H144.1C143.932 379.242 143.437 378.178 142.616 377.431C141.795 376.666 140.535 376.283 138.836 376.283C137.361 376.283 136.232 376.572 135.448 377.151C134.683 377.711 134.3 378.514 134.3 379.559C134.3 380.455 134.533 381.146 135 381.631C135.485 382.116 136.129 382.49 136.932 382.751C137.753 382.994 138.649 383.227 139.62 383.451ZM148.919 375.387H151.271V377.739H148.919V375.387ZM149.199 380.595H151.019V394.875H149.199V380.595ZM152.837 380.595H155.021L159.053 386.279H159.109L163.113 380.595H165.297L160.173 387.567L165.801 394.875H163.617L159.081 388.799H159.025L154.545 394.875H152.389L157.961 387.567L152.837 380.595ZM167.255 392.523H169.607V394.875H167.255V392.523Z" fill="#EEEEEC"/>
</g>
<g opacity="0.25">
<rect x="17" y="399.875" width="2" height="40.375" fill="#EEEEEC"/>
</g>
<g opacity="0.25">
<mask id="path-24-inside-5_587_10768" fill="white">
<path fill-rule="evenodd" clip-rule="evenodd" d="M19 440.25H17V442.25H8V469.25H17V471.25H19V469.25H28V442.25H19V440.25Z"/>
</mask>
<path d="M17 440.25V438.25H15V440.25H17ZM19 440.25H21V438.25H19V440.25ZM17 442.25V444.25H19V442.25H17ZM8 442.25V440.25H6V442.25H8ZM8 469.25H6V471.25H8V469.25ZM17 469.25H19V467.25H17V469.25ZM17 471.25H15V473.25H17V471.25ZM19 471.25V473.25H21V471.25H19ZM19 469.25V467.25H17V469.25H19ZM28 469.25V471.25H30V469.25H28ZM28 442.25H30V440.25H28V442.25ZM19 442.25H17V444.25H19V442.25ZM17 442.25H19V438.25H17V442.25ZM19 442.25V440.25H15V442.25H19ZM8 444.25H17V440.25H8V444.25ZM10 469.25V442.25H6V469.25H10ZM17 467.25H8V471.25H17V467.25ZM19 471.25V469.25H15V471.25H19ZM19 469.25H17V473.25H19V469.25ZM17 469.25V471.25H21V469.25H17ZM28 467.25H19V471.25H28V467.25ZM26 442.25V469.25H30V442.25H26ZM19 444.25H28V440.25H19V444.25ZM17 440.25V442.25H21V440.25H17Z" fill="#EEEEEC" mask="url(#path-24-inside-5_587_10768)"/>
<path d="M53.904 466.25V446.23H61.604C62.836 446.23 63.9373 446.426 64.908 446.818C65.8787 447.191 66.644 447.798 67.204 448.638C67.764 449.478 68.044 450.598 68.044 451.998C68.044 453.398 67.764 454.527 67.204 455.386C66.644 456.226 65.8787 456.842 64.908 457.234C63.9373 457.607 62.836 457.794 61.604 457.794H55.948V466.25H53.904ZM55.948 456.002H61.8C63.144 456.002 64.1613 455.675 64.852 455.022C65.5613 454.369 65.916 453.361 65.916 451.998C65.916 450.635 65.5613 449.637 64.852 449.002C64.1613 448.349 63.144 448.022 61.8 448.022H55.948V456.002ZM79.7364 456.618C79.7364 456.002 79.6337 455.442 79.4284 454.938C79.2231 454.415 78.8777 454.005 78.3924 453.706C77.9071 453.389 77.2537 453.23 76.4324 453.23C75.5364 453.23 74.7524 453.417 74.0804 453.79C73.4084 454.163 72.8857 454.658 72.5124 455.274C72.1391 455.871 71.9524 456.525 71.9524 457.234V466.25H70.1324V446.23H71.9524V454.014H72.0084C72.4004 453.417 72.9884 452.875 73.7724 452.39C74.5751 451.886 75.6111 451.634 76.8804 451.634C77.7391 451.634 78.5137 451.802 79.2044 452.138C79.9137 452.455 80.4831 452.95 80.9124 453.622C81.3417 454.294 81.5564 455.162 81.5564 456.226V466.25H79.7364V456.618ZM88.2933 466.614C86.8746 466.614 85.7359 466.25 84.8773 465.522C84.0373 464.794 83.6173 463.833 83.6173 462.638C83.6173 461.611 83.8506 460.799 84.3173 460.202C84.7839 459.586 85.4559 459.11 86.3333 458.774C87.2106 458.438 88.2653 458.158 89.4973 457.934C90.2813 457.785 90.9626 457.645 91.5413 457.514C92.1199 457.383 92.5679 457.178 92.8853 456.898C93.2026 456.618 93.3613 456.198 93.3613 455.638C93.3613 454.91 93.1093 454.322 92.6053 453.874C92.1013 453.426 91.2706 453.202 90.1133 453.202C88.7506 453.202 87.7799 453.454 87.2013 453.958C86.6226 454.462 86.2959 455.237 86.2213 456.282H84.3173C84.3733 455.442 84.5973 454.667 84.9893 453.958C85.3813 453.249 85.9973 452.679 86.8373 452.25C87.6959 451.821 88.8159 451.606 90.1973 451.606C91.0746 451.606 91.8866 451.746 92.6333 452.026C93.3986 452.306 94.0053 452.782 94.4533 453.454C94.9199 454.107 95.1533 455.003 95.1533 456.142V463.282C95.1533 463.861 95.2093 464.29 95.3213 464.57C95.4333 464.831 95.6386 464.962 95.9373 464.962C96.0866 464.962 96.2173 464.953 96.3293 464.934V466.25C96.1799 466.269 96.0213 466.287 95.8533 466.306C95.7039 466.343 95.5453 466.362 95.3773 466.362C94.7986 466.362 94.3319 466.213 93.9773 465.914C93.6226 465.597 93.4266 464.99 93.3893 464.094H93.3333C92.8293 464.897 92.1573 465.522 91.3173 465.97C90.4773 466.399 89.4693 466.614 88.2933 466.614ZM88.5173 465.018C89.9919 465.018 91.1679 464.654 92.0453 463.926C92.9226 463.198 93.3613 462.19 93.3613 460.902V458.242C93.1559 458.541 92.7079 458.783 92.0173 458.97C91.3453 459.138 90.5799 459.297 89.7213 459.446C88.3399 459.689 87.2946 460.025 86.5853 460.454C85.8759 460.883 85.5213 461.555 85.5213 462.47C85.5213 463.291 85.7639 463.926 86.2493 464.374C86.7346 464.803 87.4906 465.018 88.5173 465.018ZM103.695 457.934C104.591 458.139 105.44 458.391 106.243 458.69C107.064 458.989 107.727 459.418 108.231 459.978C108.753 460.538 109.015 461.313 109.015 462.302C109.015 463.609 108.52 464.654 107.531 465.438C106.56 466.222 105.188 466.614 103.415 466.614C102.089 466.614 100.96 466.39 100.027 465.942C99.1119 465.494 98.4119 464.897 97.9266 464.15C97.4412 463.385 97.1799 462.526 97.1426 461.574H99.0746C99.1306 462.545 99.4946 463.366 100.167 464.038C100.857 464.691 101.949 465.018 103.443 465.018C104.824 465.018 105.776 464.747 106.299 464.206C106.84 463.665 107.111 463.049 107.111 462.358C107.111 461.649 106.905 461.126 106.495 460.79C106.084 460.454 105.561 460.202 104.927 460.034C104.311 459.866 103.667 459.707 102.995 459.558C102.117 459.334 101.268 459.091 100.447 458.83C99.6439 458.55 98.9812 458.149 98.4586 457.626C97.9546 457.103 97.7026 456.385 97.7026 455.47C97.7026 454.313 98.1412 453.389 99.0186 452.698C99.9146 451.989 101.165 451.634 102.771 451.634C104.003 451.634 105.02 451.83 105.823 452.222C106.644 452.614 107.269 453.146 107.699 453.818C108.147 454.471 108.408 455.19 108.483 455.974H106.551C106.476 455.545 106.317 455.125 106.075 454.714C105.832 454.285 105.449 453.93 104.927 453.65C104.423 453.37 103.704 453.23 102.771 453.23C101.744 453.23 100.96 453.417 100.419 453.79C99.8772 454.163 99.6066 454.686 99.6066 455.358C99.6066 455.955 99.7932 456.403 100.167 456.702C100.559 457.001 101.063 457.234 101.679 457.402C102.295 457.57 102.967 457.747 103.695 457.934ZM117.069 466.642C115.613 466.642 114.381 466.315 113.373 465.662C112.365 465.009 111.59 464.113 111.049 462.974C110.526 461.835 110.265 460.547 110.265 459.11C110.265 457.579 110.545 456.254 111.105 455.134C111.665 454.014 112.458 453.146 113.485 452.53C114.512 451.914 115.706 451.606 117.069 451.606C118.45 451.606 119.617 451.905 120.569 452.502C121.521 453.081 122.249 453.893 122.753 454.938C123.257 455.965 123.509 457.141 123.509 458.466C123.509 458.653 123.509 458.839 123.509 459.026C123.509 459.213 123.5 459.362 123.481 459.474H112.169C112.188 460.445 112.365 461.359 112.701 462.218C113.056 463.058 113.597 463.749 114.325 464.29C115.053 464.813 115.977 465.074 117.097 465.074C118.086 465.074 118.88 464.887 119.477 464.514C120.093 464.141 120.55 463.711 120.849 463.226C121.166 462.722 121.372 462.274 121.465 461.882H123.313C123.089 462.741 122.706 463.534 122.165 464.262C121.642 464.99 120.961 465.569 120.121 465.998C119.281 466.427 118.264 466.642 117.069 466.642ZM116.985 453.174C116.07 453.174 115.258 453.379 114.549 453.79C113.84 454.201 113.28 454.761 112.869 455.47C112.458 456.179 112.225 456.982 112.169 457.878H121.577C121.577 457.019 121.4 456.235 121.045 455.526C120.69 454.817 120.168 454.247 119.477 453.818C118.805 453.389 117.974 453.174 116.985 453.174ZM139.62 454.826C140.647 455.05 141.599 455.302 142.476 455.582C143.353 455.843 144.119 456.189 144.772 456.618C145.444 457.047 145.967 457.598 146.34 458.27C146.713 458.942 146.9 459.782 146.9 460.79C146.9 461.873 146.648 462.853 146.144 463.73C145.64 464.607 144.865 465.307 143.82 465.83C142.793 466.353 141.487 466.614 139.9 466.614C138.276 466.614 136.839 466.343 135.588 465.802C134.337 465.261 133.339 464.467 132.592 463.422C131.845 462.377 131.425 461.107 131.332 459.614H133.46C133.609 461.163 134.179 462.423 135.168 463.394C136.176 464.346 137.725 464.822 139.816 464.822C141.048 464.822 142.028 464.645 142.756 464.29C143.484 463.935 143.997 463.459 144.296 462.862C144.613 462.246 144.772 461.574 144.772 460.846C144.791 459.857 144.567 459.101 144.1 458.578C143.633 458.055 142.943 457.645 142.028 457.346C141.113 457.047 139.975 456.749 138.612 456.45C137.791 456.263 136.997 456.049 136.232 455.806C135.467 455.545 134.776 455.218 134.16 454.826C133.544 454.434 133.059 453.93 132.704 453.314C132.349 452.698 132.172 451.933 132.172 451.018C132.172 449.413 132.769 448.153 133.964 447.238C135.159 446.323 136.773 445.866 138.808 445.866C140.992 445.866 142.737 446.398 144.044 447.462C145.351 448.526 146.079 450.038 146.228 451.998H144.1C143.932 450.617 143.437 449.553 142.616 448.806C141.795 448.041 140.535 447.658 138.836 447.658C137.361 447.658 136.232 447.947 135.448 448.526C134.683 449.086 134.3 449.889 134.3 450.934C134.3 451.83 134.533 452.521 135 453.006C135.485 453.491 136.129 453.865 136.932 454.126C137.753 454.369 138.649 454.602 139.62 454.826ZM155.331 466.642C153.875 466.642 152.643 466.315 151.635 465.662C150.627 465.009 149.852 464.113 149.311 462.974C148.788 461.835 148.527 460.547 148.527 459.11C148.527 457.579 148.807 456.254 149.367 455.134C149.927 454.014 150.72 453.146 151.747 452.53C152.773 451.914 153.968 451.606 155.331 451.606C156.712 451.606 157.879 451.905 158.831 452.502C159.783 453.081 160.511 453.893 161.015 454.938C161.519 455.965 161.771 457.141 161.771 458.466C161.771 458.653 161.771 458.839 161.771 459.026C161.771 459.213 161.761 459.362 161.743 459.474H150.431C150.449 460.445 150.627 461.359 150.963 462.218C151.317 463.058 151.859 463.749 152.587 464.29C153.315 464.813 154.239 465.074 155.359 465.074C156.348 465.074 157.141 464.887 157.739 464.514C158.355 464.141 158.812 463.711 159.111 463.226C159.428 462.722 159.633 462.274 159.727 461.882H161.575C161.351 462.741 160.968 463.534 160.427 464.262C159.904 464.99 159.223 465.569 158.383 465.998C157.543 466.427 156.525 466.642 155.331 466.642ZM155.247 453.174C154.332 453.174 153.52 453.379 152.811 453.79C152.101 454.201 151.541 454.761 151.131 455.47C150.72 456.179 150.487 456.982 150.431 457.878H159.839C159.839 457.019 159.661 456.235 159.307 455.526C158.952 454.817 158.429 454.247 157.739 453.818C157.067 453.389 156.236 453.174 155.247 453.174ZM162.121 451.97H164.137L168.421 464.402H168.449L172.705 451.97H174.665L169.429 466.25H167.357L162.121 451.97ZM181.813 466.642C180.357 466.642 179.125 466.315 178.117 465.662C177.109 465.009 176.335 464.113 175.793 462.974C175.271 461.835 175.009 460.547 175.009 459.11C175.009 457.579 175.289 456.254 175.849 455.134C176.409 454.014 177.203 453.146 178.229 452.53C179.256 451.914 180.451 451.606 181.813 451.606C183.195 451.606 184.361 451.905 185.313 452.502C186.265 453.081 186.993 453.893 187.497 454.938C188.001 455.965 188.253 457.141 188.253 458.466C188.253 458.653 188.253 458.839 188.253 459.026C188.253 459.213 188.244 459.362 188.225 459.474H176.913C176.932 460.445 177.109 461.359 177.445 462.218C177.8 463.058 178.341 463.749 179.069 464.29C179.797 464.813 180.721 465.074 181.841 465.074C182.831 465.074 183.624 464.887 184.221 464.514C184.837 464.141 185.295 463.711 185.593 463.226C185.911 462.722 186.116 462.274 186.209 461.882H188.057C187.833 462.741 187.451 463.534 186.909 464.262C186.387 464.99 185.705 465.569 184.865 465.998C184.025 466.427 183.008 466.642 181.813 466.642ZM181.729 453.174C180.815 453.174 180.003 453.379 179.293 453.79C178.584 454.201 178.024 454.761 177.613 455.47C177.203 456.179 176.969 456.982 176.913 457.878H186.321C186.321 457.019 186.144 456.235 185.789 455.526C185.435 454.817 184.912 454.247 184.221 453.818C183.549 453.389 182.719 453.174 181.729 453.174ZM190.495 466.25V451.97H192.315V454.014H192.371C192.763 453.417 193.351 452.875 194.135 452.39C194.938 451.886 195.974 451.634 197.243 451.634C198.102 451.634 198.877 451.802 199.567 452.138C200.277 452.455 200.846 452.95 201.275 453.622C201.705 454.294 201.919 455.162 201.919 456.226V466.25H200.099V456.618C200.099 456.002 199.997 455.442 199.791 454.938C199.586 454.415 199.241 454.005 198.755 453.706C198.27 453.389 197.617 453.23 196.795 453.23C195.899 453.23 195.115 453.417 194.443 453.79C193.771 454.163 193.249 454.658 192.875 455.274C192.502 455.871 192.315 456.525 192.315 457.234V466.25H190.495ZM204.484 463.898H206.836V466.25H204.484V463.898Z" fill="#EEEEEC"/>
</g>
<g opacity="0.25">
<rect x="17" y="471.25" width="2" height="40.375" fill="#EEEEEC"/>
</g>
<g opacity="0.25">
<mask id="path-28-inside-6_587_10768" fill="white">
<path fill-rule="evenodd" clip-rule="evenodd" d="M19 511.625H17V513.625H8V540.625H17V542.625H19V540.625H28V513.625H19V511.625Z"/>
</mask>
<path d="M17 511.625V509.625H15V511.625H17ZM19 511.625H21V509.625H19V511.625ZM17 513.625V515.625H19V513.625H17ZM8 513.625V511.625H6V513.625H8ZM8 540.625H6V542.625H8V540.625ZM17 540.625H19V538.625H17V540.625ZM17 542.625H15V544.625H17V542.625ZM19 542.625V544.625H21V542.625H19ZM19 540.625V538.625H17V540.625H19ZM28 540.625V542.625H30V540.625H28ZM28 513.625H30V511.625H28V513.625ZM19 513.625H17V515.625H19V513.625ZM17 513.625H19V509.625H17V513.625ZM19 513.625V511.625H15V513.625H19ZM8 515.625H17V511.625H8V515.625ZM10 540.625V513.625H6V540.625H10ZM17 538.625H8V542.625H17V538.625ZM19 542.625V540.625H15V542.625H19ZM19 540.625H17V544.625H19V540.625ZM17 540.625V542.625H21V540.625H17ZM28 538.625H19V542.625H28V538.625ZM26 513.625V540.625H30V513.625H26ZM19 515.625H28V511.625H19V515.625ZM17 511.625V513.625H21V511.625H17Z" fill="#EEEEEC" mask="url(#path-28-inside-6_587_10768)"/>
<path d="M53.904 537.625V517.605H61.604C62.836 517.605 63.9373 517.801 64.908 518.193C65.8787 518.566 66.644 519.173 67.204 520.013C67.764 520.853 68.044 521.973 68.044 523.373C68.044 524.773 67.764 525.902 67.204 526.761C66.644 527.601 65.8787 528.217 64.908 528.609C63.9373 528.982 62.836 529.169 61.604 529.169H55.948V537.625H53.904ZM55.948 527.377H61.8C63.144 527.377 64.1613 527.05 64.852 526.397C65.5613 525.744 65.916 524.736 65.916 523.373C65.916 522.01 65.5613 521.012 64.852 520.377C64.1613 519.724 63.144 519.397 61.8 519.397H55.948V527.377ZM79.7364 527.993C79.7364 527.377 79.6337 526.817 79.4284 526.313C79.2231 525.79 78.8777 525.38 78.3924 525.081C77.9071 524.764 77.2537 524.605 76.4324 524.605C75.5364 524.605 74.7524 524.792 74.0804 525.165C73.4084 525.538 72.8857 526.033 72.5124 526.649C72.1391 527.246 71.9524 527.9 71.9524 528.609V537.625H70.1324V517.605H71.9524V525.389H72.0084C72.4004 524.792 72.9884 524.25 73.7724 523.765C74.5751 523.261 75.6111 523.009 76.8804 523.009C77.7391 523.009 78.5137 523.177 79.2044 523.513C79.9137 523.83 80.4831 524.325 80.9124 524.997C81.3417 525.669 81.5564 526.537 81.5564 527.601V537.625H79.7364V527.993ZM88.2933 537.989C86.8746 537.989 85.7359 537.625 84.8773 536.897C84.0373 536.169 83.6173 535.208 83.6173 534.013C83.6173 532.986 83.8506 532.174 84.3173 531.577C84.7839 530.961 85.4559 530.485 86.3333 530.149C87.2106 529.813 88.2653 529.533 89.4973 529.309C90.2813 529.16 90.9626 529.02 91.5413 528.889C92.1199 528.758 92.5679 528.553 92.8853 528.273C93.2026 527.993 93.3613 527.573 93.3613 527.013C93.3613 526.285 93.1093 525.697 92.6053 525.249C92.1013 524.801 91.2706 524.577 90.1133 524.577C88.7506 524.577 87.7799 524.829 87.2013 525.333C86.6226 525.837 86.2959 526.612 86.2213 527.657H84.3173C84.3733 526.817 84.5973 526.042 84.9893 525.333C85.3813 524.624 85.9973 524.054 86.8373 523.625C87.6959 523.196 88.8159 522.981 90.1973 522.981C91.0746 522.981 91.8866 523.121 92.6333 523.401C93.3986 523.681 94.0053 524.157 94.4533 524.829C94.9199 525.482 95.1533 526.378 95.1533 527.517V534.657C95.1533 535.236 95.2093 535.665 95.3213 535.945C95.4333 536.206 95.6386 536.337 95.9373 536.337C96.0866 536.337 96.2173 536.328 96.3293 536.309V537.625C96.1799 537.644 96.0213 537.662 95.8533 537.681C95.7039 537.718 95.5453 537.737 95.3773 537.737C94.7986 537.737 94.3319 537.588 93.9773 537.289C93.6226 536.972 93.4266 536.365 93.3893 535.469H93.3333C92.8293 536.272 92.1573 536.897 91.3173 537.345C90.4773 537.774 89.4693 537.989 88.2933 537.989ZM88.5173 536.393C89.9919 536.393 91.1679 536.029 92.0453 535.301C92.9226 534.573 93.3613 533.565 93.3613 532.277V529.617C93.1559 529.916 92.7079 530.158 92.0173 530.345C91.3453 530.513 90.5799 530.672 89.7213 530.821C88.3399 531.064 87.2946 531.4 86.5853 531.829C85.8759 532.258 85.5213 532.93 85.5213 533.845C85.5213 534.666 85.7639 535.301 86.2493 535.749C86.7346 536.178 87.4906 536.393 88.5173 536.393ZM103.695 529.309C104.591 529.514 105.44 529.766 106.243 530.065C107.064 530.364 107.727 530.793 108.231 531.353C108.753 531.913 109.015 532.688 109.015 533.677C109.015 534.984 108.52 536.029 107.531 536.813C106.56 537.597 105.188 537.989 103.415 537.989C102.089 537.989 100.96 537.765 100.027 537.317C99.1119 536.869 98.4119 536.272 97.9266 535.525C97.4412 534.76 97.1799 533.901 97.1426 532.949H99.0746C99.1306 533.92 99.4946 534.741 100.167 535.413C100.857 536.066 101.949 536.393 103.443 536.393C104.824 536.393 105.776 536.122 106.299 535.581C106.84 535.04 107.111 534.424 107.111 533.733C107.111 533.024 106.905 532.501 106.495 532.165C106.084 531.829 105.561 531.577 104.927 531.409C104.311 531.241 103.667 531.082 102.995 530.933C102.117 530.709 101.268 530.466 100.447 530.205C99.6439 529.925 98.9812 529.524 98.4586 529.001C97.9546 528.478 97.7026 527.76 97.7026 526.845C97.7026 525.688 98.1412 524.764 99.0186 524.073C99.9146 523.364 101.165 523.009 102.771 523.009C104.003 523.009 105.02 523.205 105.823 523.597C106.644 523.989 107.269 524.521 107.699 525.193C108.147 525.846 108.408 526.565 108.483 527.349H106.551C106.476 526.92 106.317 526.5 106.075 526.089C105.832 525.66 105.449 525.305 104.927 525.025C104.423 524.745 103.704 524.605 102.771 524.605C101.744 524.605 100.96 524.792 100.419 525.165C99.8772 525.538 99.6066 526.061 99.6066 526.733C99.6066 527.33 99.7932 527.778 100.167 528.077C100.559 528.376 101.063 528.609 101.679 528.777C102.295 528.945 102.967 529.122 103.695 529.309ZM117.069 538.017C115.613 538.017 114.381 537.69 113.373 537.037C112.365 536.384 111.59 535.488 111.049 534.349C110.526 533.21 110.265 531.922 110.265 530.485C110.265 528.954 110.545 527.629 111.105 526.509C111.665 525.389 112.458 524.521 113.485 523.905C114.512 523.289 115.706 522.981 117.069 522.981C118.45 522.981 119.617 523.28 120.569 523.877C121.521 524.456 122.249 525.268 122.753 526.313C123.257 527.34 123.509 528.516 123.509 529.841C123.509 530.028 123.509 530.214 123.509 530.401C123.509 530.588 123.5 530.737 123.481 530.849H112.169C112.188 531.82 112.365 532.734 112.701 533.593C113.056 534.433 113.597 535.124 114.325 535.665C115.053 536.188 115.977 536.449 117.097 536.449C118.086 536.449 118.88 536.262 119.477 535.889C120.093 535.516 120.55 535.086 120.849 534.601C121.166 534.097 121.372 533.649 121.465 533.257H123.313C123.089 534.116 122.706 534.909 122.165 535.637C121.642 536.365 120.961 536.944 120.121 537.373C119.281 537.802 118.264 538.017 117.069 538.017ZM116.985 524.549C116.07 524.549 115.258 524.754 114.549 525.165C113.84 525.576 113.28 526.136 112.869 526.845C112.458 527.554 112.225 528.357 112.169 529.253H121.577C121.577 528.394 121.4 527.61 121.045 526.901C120.69 526.192 120.168 525.622 119.477 525.193C118.805 524.764 117.974 524.549 116.985 524.549ZM134.44 526.285H144.716V528.077H134.44V535.833H146.284V537.625H132.396V517.605H145.976V519.397H134.44V526.285ZM148.481 518.137H150.833V520.489H148.481V518.137ZM148.761 523.345H150.581V537.625H148.761V523.345ZM163.93 536.981V534.321H163.874C163.463 535.068 162.856 535.693 162.054 536.197C161.27 536.701 160.271 536.953 159.058 536.953C157.938 536.953 156.902 536.701 155.95 536.197C154.998 535.693 154.232 534.928 153.654 533.901C153.075 532.856 152.786 531.54 152.786 529.953C152.786 528.385 153.075 527.088 153.654 526.061C154.232 525.034 154.998 524.269 155.95 523.765C156.902 523.261 157.938 523.009 159.058 523.009C160.271 523.009 161.27 523.261 162.054 523.765C162.856 524.269 163.463 524.876 163.874 525.585H163.93V523.345H165.75V536.729C165.75 538.745 165.162 540.248 163.986 541.237C162.828 542.245 161.27 542.749 159.31 542.749C157.387 542.749 155.912 542.329 154.886 541.489C153.859 540.668 153.29 539.632 153.178 538.381H155.082C155.231 539.128 155.632 539.772 156.286 540.313C156.958 540.873 157.975 541.153 159.338 541.153C160.775 541.153 161.895 540.817 162.698 540.145C163.519 539.492 163.93 538.437 163.93 536.981ZM159.31 524.605C157.835 524.605 156.696 525.1 155.894 526.089C155.091 527.06 154.69 528.348 154.69 529.953C154.69 531.596 155.091 532.912 155.894 533.901C156.696 534.872 157.835 535.357 159.31 535.357C160.635 535.357 161.736 534.918 162.614 534.041C163.491 533.145 163.93 531.782 163.93 529.953C163.93 528.142 163.491 526.798 162.614 525.921C161.736 525.044 160.635 524.605 159.31 524.605ZM178.368 527.993C178.368 527.377 178.265 526.817 178.06 526.313C177.854 525.79 177.509 525.38 177.024 525.081C176.538 524.764 175.885 524.605 175.064 524.605C174.168 524.605 173.384 524.792 172.712 525.165C172.04 525.538 171.517 526.033 171.144 526.649C170.77 527.246 170.584 527.9 170.584 528.609V537.625H168.764V517.605H170.584V525.389H170.64C171.032 524.792 171.62 524.25 172.404 523.765C173.206 523.261 174.242 523.009 175.512 523.009C176.37 523.009 177.145 523.177 177.836 523.513C178.545 523.83 179.114 524.325 179.544 524.997C179.973 525.669 180.188 526.537 180.188 527.601V537.625H178.368V527.993ZM181.611 523.345H183.711V518.585H185.531V523.345H188.443V524.941H185.531V533.957C185.531 534.834 185.662 535.422 185.923 535.721C186.184 536.001 186.66 536.141 187.351 536.141C187.575 536.141 187.762 536.141 187.911 536.141C188.06 536.122 188.238 536.104 188.443 536.085V537.625C187.939 537.7 187.491 537.737 187.099 537.737C186.408 537.737 185.802 537.634 185.279 537.429C184.775 537.224 184.383 536.85 184.103 536.309C183.842 535.749 183.711 534.956 183.711 533.929V524.941H181.611V523.345ZM190.675 535.273H193.027V537.625H190.675V535.273Z" fill="#EEEEEC"/>
</g>
<g opacity="0.25">
<rect x="17" y="542.625" width="2" height="40.375" fill="#EEEEEC"/>
</g>
<g opacity="0.25">
<mask id="path-32-inside-7_587_10768" fill="white">
<path fill-rule="evenodd" clip-rule="evenodd" d="M19 583H17V585H8V612H17V614H19V612H28V585H19V583Z"/>
</mask>
<path d="M17 583V581H15V583H17ZM19 583H21V581H19V583ZM17 585V587H19V585H17ZM8 585V583H6V585H8ZM8 612H6V614H8V612ZM17 612H19V610H17V612ZM17 614H15V616H17V614ZM19 614V616H21V614H19ZM19 612V610H17V612H19ZM28 612V614H30V612H28ZM28 585H30V583H28V585ZM19 585H17V587H19V585ZM17 585H19V581H17V585ZM19 585V583H15V585H19ZM8 587H17V583H8V587ZM10 612V585H6V612H10ZM17 610H8V614H17V610ZM19 614V612H15V614H19ZM19 612H17V616H19V612ZM17 612V614H21V612H17ZM28 610H19V614H28V610ZM26 585V612H30V585H26ZM19 587H28V583H19V587ZM17 583V585H21V583H17Z" fill="#EEEEEC" mask="url(#path-32-inside-7_587_10768)"/>
<path d="M53.904 609V588.98H61.604C62.836 588.98 63.9373 589.176 64.908 589.568C65.8787 589.941 66.644 590.548 67.204 591.388C67.764 592.228 68.044 593.348 68.044 594.748C68.044 596.148 67.764 597.277 67.204 598.136C66.644 598.976 65.8787 599.592 64.908 599.984C63.9373 600.357 62.836 600.544 61.604 600.544H55.948V609H53.904ZM55.948 598.752H61.8C63.144 598.752 64.1613 598.425 64.852 597.772C65.5613 597.119 65.916 596.111 65.916 594.748C65.916 593.385 65.5613 592.387 64.852 591.752C64.1613 591.099 63.144 590.772 61.8 590.772H55.948V598.752ZM79.7364 599.368C79.7364 598.752 79.6337 598.192 79.4284 597.688C79.2231 597.165 78.8777 596.755 78.3924 596.456C77.9071 596.139 77.2537 595.98 76.4324 595.98C75.5364 595.98 74.7524 596.167 74.0804 596.54C73.4084 596.913 72.8857 597.408 72.5124 598.024C72.1391 598.621 71.9524 599.275 71.9524 599.984V609H70.1324V588.98H71.9524V596.764H72.0084C72.4004 596.167 72.9884 595.625 73.7724 595.14C74.5751 594.636 75.6111 594.384 76.8804 594.384C77.7391 594.384 78.5137 594.552 79.2044 594.888C79.9137 595.205 80.4831 595.7 80.9124 596.372C81.3417 597.044 81.5564 597.912 81.5564 598.976V609H79.7364V599.368ZM88.2933 609.364C86.8746 609.364 85.7359 609 84.8773 608.272C84.0373 607.544 83.6173 606.583 83.6173 605.388C83.6173 604.361 83.8506 603.549 84.3173 602.952C84.7839 602.336 85.4559 601.86 86.3333 601.524C87.2106 601.188 88.2653 600.908 89.4973 600.684C90.2813 600.535 90.9626 600.395 91.5413 600.264C92.1199 600.133 92.5679 599.928 92.8853 599.648C93.2026 599.368 93.3613 598.948 93.3613 598.388C93.3613 597.66 93.1093 597.072 92.6053 596.624C92.1013 596.176 91.2706 595.952 90.1133 595.952C88.7506 595.952 87.7799 596.204 87.2013 596.708C86.6226 597.212 86.2959 597.987 86.2213 599.032H84.3173C84.3733 598.192 84.5973 597.417 84.9893 596.708C85.3813 595.999 85.9973 595.429 86.8373 595C87.6959 594.571 88.8159 594.356 90.1973 594.356C91.0746 594.356 91.8866 594.496 92.6333 594.776C93.3986 595.056 94.0053 595.532 94.4533 596.204C94.9199 596.857 95.1533 597.753 95.1533 598.892V606.032C95.1533 606.611 95.2093 607.04 95.3213 607.32C95.4333 607.581 95.6386 607.712 95.9373 607.712C96.0866 607.712 96.2173 607.703 96.3293 607.684V609C96.1799 609.019 96.0213 609.037 95.8533 609.056C95.7039 609.093 95.5453 609.112 95.3773 609.112C94.7986 609.112 94.3319 608.963 93.9773 608.664C93.6226 608.347 93.4266 607.74 93.3893 606.844H93.3333C92.8293 607.647 92.1573 608.272 91.3173 608.72C90.4773 609.149 89.4693 609.364 88.2933 609.364ZM88.5173 607.768C89.9919 607.768 91.1679 607.404 92.0453 606.676C92.9226 605.948 93.3613 604.94 93.3613 603.652V600.992C93.1559 601.291 92.7079 601.533 92.0173 601.72C91.3453 601.888 90.5799 602.047 89.7213 602.196C88.3399 602.439 87.2946 602.775 86.5853 603.204C85.8759 603.633 85.5213 604.305 85.5213 605.22C85.5213 606.041 85.7639 606.676 86.2493 607.124C86.7346 607.553 87.4906 607.768 88.5173 607.768ZM103.695 600.684C104.591 600.889 105.44 601.141 106.243 601.44C107.064 601.739 107.727 602.168 108.231 602.728C108.753 603.288 109.015 604.063 109.015 605.052C109.015 606.359 108.52 607.404 107.531 608.188C106.56 608.972 105.188 609.364 103.415 609.364C102.089 609.364 100.96 609.14 100.027 608.692C99.1119 608.244 98.4119 607.647 97.9266 606.9C97.4412 606.135 97.1799 605.276 97.1426 604.324H99.0746C99.1306 605.295 99.4946 606.116 100.167 606.788C100.857 607.441 101.949 607.768 103.443 607.768C104.824 607.768 105.776 607.497 106.299 606.956C106.84 606.415 107.111 605.799 107.111 605.108C107.111 604.399 106.905 603.876 106.495 603.54C106.084 603.204 105.561 602.952 104.927 602.784C104.311 602.616 103.667 602.457 102.995 602.308C102.117 602.084 101.268 601.841 100.447 601.58C99.6439 601.3 98.9812 600.899 98.4586 600.376C97.9546 599.853 97.7026 599.135 97.7026 598.22C97.7026 597.063 98.1412 596.139 99.0186 595.448C99.9146 594.739 101.165 594.384 102.771 594.384C104.003 594.384 105.02 594.58 105.823 594.972C106.644 595.364 107.269 595.896 107.699 596.568C108.147 597.221 108.408 597.94 108.483 598.724H106.551C106.476 598.295 106.317 597.875 106.075 597.464C105.832 597.035 105.449 596.68 104.927 596.4C104.423 596.12 103.704 595.98 102.771 595.98C101.744 595.98 100.96 596.167 100.419 596.54C99.8772 596.913 99.6066 597.436 99.6066 598.108C99.6066 598.705 99.7932 599.153 100.167 599.452C100.559 599.751 101.063 599.984 101.679 600.152C102.295 600.32 102.967 600.497 103.695 600.684ZM117.069 609.392C115.613 609.392 114.381 609.065 113.373 608.412C112.365 607.759 111.59 606.863 111.049 605.724C110.526 604.585 110.265 603.297 110.265 601.86C110.265 600.329 110.545 599.004 111.105 597.884C111.665 596.764 112.458 595.896 113.485 595.28C114.512 594.664 115.706 594.356 117.069 594.356C118.45 594.356 119.617 594.655 120.569 595.252C121.521 595.831 122.249 596.643 122.753 597.688C123.257 598.715 123.509 599.891 123.509 601.216C123.509 601.403 123.509 601.589 123.509 601.776C123.509 601.963 123.5 602.112 123.481 602.224H112.169C112.188 603.195 112.365 604.109 112.701 604.968C113.056 605.808 113.597 606.499 114.325 607.04C115.053 607.563 115.977 607.824 117.097 607.824C118.086 607.824 118.88 607.637 119.477 607.264C120.093 606.891 120.55 606.461 120.849 605.976C121.166 605.472 121.372 605.024 121.465 604.632H123.313C123.089 605.491 122.706 606.284 122.165 607.012C121.642 607.74 120.961 608.319 120.121 608.748C119.281 609.177 118.264 609.392 117.069 609.392ZM116.985 595.924C116.07 595.924 115.258 596.129 114.549 596.54C113.84 596.951 113.28 597.511 112.869 598.22C112.458 598.929 112.225 599.732 112.169 600.628H121.577C121.577 599.769 121.4 598.985 121.045 598.276C120.69 597.567 120.168 596.997 119.477 596.568C118.805 596.139 117.974 595.924 116.985 595.924ZM132.396 609V588.98H134.888L145.724 606.116H145.78V588.98H147.796V609H145.304L134.496 591.864H134.44V609H132.396ZM150.723 589.512H153.075V591.864H150.723V589.512ZM151.003 594.72H152.823V609H151.003V594.72ZM155.836 609V594.72H157.656V596.764H157.712C158.104 596.167 158.692 595.625 159.476 595.14C160.279 594.636 161.315 594.384 162.584 594.384C163.443 594.384 164.218 594.552 164.908 594.888C165.618 595.205 166.187 595.7 166.616 596.372C167.046 597.044 167.26 597.912 167.26 598.976V609H165.44V599.368C165.44 598.752 165.338 598.192 165.132 597.688C164.927 597.165 164.582 596.755 164.096 596.456C163.611 596.139 162.958 595.98 162.136 595.98C161.24 595.98 160.456 596.167 159.784 596.54C159.112 596.913 158.59 597.408 158.216 598.024C157.843 598.621 157.656 599.275 157.656 599.984V609H155.836ZM176.153 609.392C174.697 609.392 173.465 609.065 172.457 608.412C171.449 607.759 170.675 606.863 170.133 605.724C169.611 604.585 169.349 603.297 169.349 601.86C169.349 600.329 169.629 599.004 170.189 597.884C170.749 596.764 171.543 595.896 172.569 595.28C173.596 594.664 174.791 594.356 176.153 594.356C177.535 594.356 178.701 594.655 179.653 595.252C180.605 595.831 181.333 596.643 181.837 597.688C182.341 598.715 182.593 599.891 182.593 601.216C182.593 601.403 182.593 601.589 182.593 601.776C182.593 601.963 182.584 602.112 182.565 602.224H171.253C171.272 603.195 171.449 604.109 171.785 604.968C172.14 605.808 172.681 606.499 173.409 607.04C174.137 607.563 175.061 607.824 176.181 607.824C177.171 607.824 177.964 607.637 178.561 607.264C179.177 606.891 179.635 606.461 179.933 605.976C180.251 605.472 180.456 605.024 180.549 604.632H182.397C182.173 605.491 181.791 606.284 181.249 607.012C180.727 607.74 180.045 608.319 179.205 608.748C178.365 609.177 177.348 609.392 176.153 609.392ZM176.069 595.924C175.155 595.924 174.343 596.129 173.633 596.54C172.924 596.951 172.364 597.511 171.953 598.22C171.543 598.929 171.309 599.732 171.253 600.628H180.661C180.661 599.769 180.484 598.985 180.129 598.276C179.775 597.567 179.252 596.997 178.561 596.568C177.889 596.139 177.059 595.924 176.069 595.924ZM183.409 606.648H185.761V609H183.409V606.648Z" fill="#EEEEEC"/>
</g>
<g opacity="0.25">
<rect x="17" y="614" width="2" height="12" fill="#EEEEEC"/>
</g>
<defs>
<radialGradient id="paint0_angular_587_10768" cx="0" cy="0" r="1" gradientUnits="userSpaceOnUse" gradientTransform="translate(8 154.75) rotate(-98.2594) scale(7.83123 10.1562)">
<stop offset="0.0657934" stop-color="#E4FF1A"/>
<stop offset="0.180017" stop-color="#A9FFF7"/>
<stop offset="0.442708" stop-color="#E4FF1A"/>
<stop offset="0.598552" stop-color="#A9FFF7"/>
<stop offset="0.687877" stop-color="#E4FF1A"/>
</radialGradient>
<radialGradient id="paint1_angular_587_10768" cx="0" cy="0" r="1" gradientUnits="userSpaceOnUse" gradientTransform="translate(52 154.75) rotate(-138.182) scale(11.6233 52.689)">
<stop offset="0.0657934" stop-color="#E4FF1A"/>
<stop offset="0.180017" stop-color="#A9FFF7"/>
<stop offset="0.442708" stop-color="#E4FF1A"/>
<stop offset="0.598552" stop-color="#A9FFF7"/>
<stop offset="0.687877" stop-color="#E4FF1A"/>
</radialGradient>
</defs>
</svg>
